glyphs
<glyph name="exclam" format="2">
  <advance width="378"/>
  <unicode hex="0021"/>
  <outline>
    <contour>
      <point x="110" y="1286" type="qcurve" smooth="yes"/>
      <point x="156" y="1286" type="line"/>
      <point x="158" y="1285" type="line"/>
      <point x="165" y="1284" type="line" smooth="yes"/>
      <point x="170" y="1282"/>
      <point x="177" y="1280" type="qcurve" smooth="yes"/>
      <point x="179" y="1279" type="line" smooth="yes"/>
      <point x="184" y="1276"/>
      <point x="191" y="1272" type="qcurve" smooth="yes"/>
      <point x="196" y="1270"/>
      <point x="202" y="1264" type="qcurve" smooth="yes"/>
      <point x="211" y="1257" type="line"/>
      <point x="212" y="1255" type="line"/>
      <point x="221" y="1245" type="line" smooth="yes"/>
      <point x="224" y="1241"/>
      <point x="228" y="1234" type="qcurve" smooth="yes"/>
      <point x="232" y="1230"/>
      <point x="235" y="1222" type="qcurve" smooth="yes"/>
      <point x="239" y="1217"/>
      <point x="241" y="1209" type="qcurve" smooth="yes"/>
      <point x="244" y="1204"/>
      <point x="247" y="1196" type="qcurve" smooth="yes"/>
      <point x="248" y="1192"/>
      <point x="251" y="1184" type="qcurve" smooth="yes"/>
      <point x="251" y="1181" type="line" smooth="yes"/>
      <point x="254" y="1175"/>
      <point x="255" y="1167" type="qcurve" smooth="yes"/>
      <point x="257" y="1161"/>
      <point x="258" y="1153" type="qcurve" smooth="yes"/>
      <point x="259" y="1151" type="line" smooth="yes"/>
      <point x="260" y="1146"/>
      <point x="261" y="1138" type="qcurve" smooth="yes"/>
      <point x="262" y="1136" type="line" smooth="yes"/>
      <point x="262" y="1129"/>
      <point x="264" y="1119" type="qcurve" smooth="yes"/>
      <point x="266" y="1102" type="line"/>
      <point x="266" y="1096" type="line"/>
      <point x="267" y="1090" type="line"/>
      <point x="267" y="980" type="line"/>
      <point x="266" y="978" type="line"/>
      <point x="266" y="972" type="line" smooth="yes"/>
      <point x="265" y="965"/>
      <point x="265" y="954" type="qcurve" smooth="yes"/>
      <point x="263" y="937" type="line" smooth="yes"/>
      <point x="263" y="932"/>
      <point x="262" y="925" type="qcurve" smooth="yes"/>
      <point x="262" y="922" type="line"/>
      <point x="261" y="920" type="line"/>
      <point x="260" y="903" type="line" smooth="yes"/>
      <point x="258" y="896"/>
      <point x="258" y="886" type="qcurve" smooth="yes"/>
      <point x="256" y="879"/>
      <point x="255" y="870" type="qcurve" smooth="yes"/>
      <point x="253" y="854" type="line" smooth="yes"/>
      <point x="253" y="847"/>
      <point x="250" y="838" type="qcurve" smooth="yes"/>
      <point x="248" y="821" type="line"/>
      <point x="236" y="757" type="line" smooth="yes"/>
      <point x="234" y="751"/>
      <point x="233" y="741" type="qcurve" smooth="yes"/>
      <point x="229" y="726" type="line" smooth="yes"/>
      <point x="229" y="719"/>
      <point x="226" y="711" type="qcurve" smooth="yes"/>
      <point x="223" y="695" type="line"/>
      <point x="219" y="680" type="line" smooth="yes"/>
      <point x="217" y="673"/>
      <point x="216" y="664" type="qcurve" smooth="yes"/>
      <point x="214" y="657" type="line" smooth="yes"/>
      <point x="213" y="654"/>
      <point x="211" y="644"/>
      <point x="209" y="637" type="qcurve" smooth="yes"/>
      <point x="208" y="635" type="line" smooth="yes"/>
      <point x="207" y="628"/>
      <point x="204" y="619" type="qcurve" smooth="yes"/>
      <point x="203" y="613"/>
      <point x="201" y="607" type="qcurve" smooth="yes"/>
      <point x="201" y="604" type="line" smooth="yes"/>
      <point x="198" y="598"/>
      <point x="197" y="589" type="qcurve" smooth="yes"/>
      <point x="194" y="583"/>
      <point x="193" y="574" type="qcurve" smooth="yes"/>
      <point x="190" y="568"/>
      <point x="189" y="559" type="qcurve" smooth="yes"/>
      <point x="185" y="549" type="line"/>
      <point x="184" y="545" type="line" smooth="yes"/>
      <point x="183" y="539"/>
      <point x="180" y="531" type="qcurve" smooth="yes"/>
      <point x="174" y="509" type="line" smooth="yes"/>
      <point x="173" y="506"/>
      <point x="172" y="501" type="qcurve" smooth="yes"/>
      <point x="167" y="487" type="line" smooth="yes"/>
      <point x="166" y="481"/>
      <point x="163" y="473" type="qcurve" smooth="yes"/>
      <point x="162" y="468"/>
      <point x="159" y="461" type="qcurve" smooth="yes"/>
      <point x="159" y="458" type="line" smooth="yes"/>
      <point x="157" y="452"/>
      <point x="154" y="444" type="qcurve" smooth="yes"/>
      <point x="153" y="439"/>
      <point x="150" y="432" type="qcurve" smooth="yes"/>
      <point x="150" y="429" type="line" smooth="yes"/>
      <point x="147" y="423"/>
      <point x="145" y="415" type="qcurve" smooth="yes"/>
      <point x="143" y="409"/>
      <point x="140" y="401" type="qcurve" smooth="yes"/>
      <point x="136" y="387" type="line" smooth="yes"/>
      <point x="134" y="381"/>
      <point x="131" y="373" type="qcurve" smooth="yes"/>
      <point x="129" y="369"/>
      <point x="127" y="361" type="qcurve" smooth="yes"/>
      <point x="126" y="359" type="line"/>
      <point x="126" y="349"/>
      <point x="119" y="348" type="qcurve"/>
      <point x="116" y="364" type="line"/>
      <point x="112" y="378" type="line"/>
      <point x="109" y="394" type="line" smooth="yes"/>
      <point x="108" y="399"/>
      <point x="105" y="406" type="qcurve" smooth="yes"/>
      <point x="104" y="412"/>
      <point x="103" y="416" type="qcurve" smooth="yes"/>
      <point x="101" y="424" type="line"/>
      <point x="98" y="440" type="line" smooth="yes"/>
      <point x="96" y="446"/>
      <point x="94" y="455" type="qcurve" smooth="yes"/>
      <point x="93" y="460"/>
      <point x="91" y="468" type="qcurve" smooth="yes"/>
      <point x="91" y="471" type="line" smooth="yes"/>
      <point x="89" y="477"/>
      <point x="87" y="486" type="qcurve" smooth="yes"/>
      <point x="85" y="493" type="line"/>
      <point x="84" y="501" type="line"/>
      <point x="80" y="516" type="line"/>
      <point x="77" y="532" type="line"/>
      <point x="73" y="547" type="line"/>
      <point x="72" y="554" type="line"/>
      <point x="70" y="562" type="line" smooth="yes"/>
      <point x="69" y="569"/>
      <point x="67" y="578" type="qcurve" smooth="yes"/>
      <point x="63" y="593" type="line"/>
      <point x="60" y="609" type="line" smooth="yes"/>
      <point x="58" y="615"/>
      <point x="57" y="625" type="qcurve" smooth="yes"/>
      <point x="55" y="632" type="line"/>
      <point x="54" y="640" type="line"/>
      <point x="50" y="655" type="line" smooth="yes"/>
      <point x="50" y="662"/>
      <point x="47" y="671" type="qcurve" smooth="yes"/>
      <point x="46" y="678"/>
      <point x="44" y="687" type="qcurve" smooth="yes"/>
      <point x="41" y="703" type="line" smooth="yes"/>
      <point x="40" y="710"/>
      <point x="38" y="719" type="qcurve" smooth="yes"/>
      <point x="37" y="726"/>
      <point x="35" y="735" type="qcurve" smooth="yes"/>
      <point x="33" y="742" type="line"/>
      <point x="32" y="750" type="line" smooth="yes"/>
      <point x="31" y="757"/>
      <point x="29" y="766" type="qcurve" smooth="yes"/>
      <point x="29" y="771"/>
      <point x="27" y="779" type="qcurve" smooth="yes"/>
      <point x="27" y="782" type="line" smooth="yes"/>
      <point x="25" y="788"/>
      <point x="24" y="799" type="qcurve" smooth="yes"/>
      <point x="22" y="806" type="line"/>
      <point x="22" y="813" type="line"/>
      <point x="21" y="814" type="line"/>
      <point x="19" y="831" type="line"/>
      <point x="16" y="847" type="line"/>
      <point x="14" y="864" type="line" smooth="yes"/>
      <point x="13" y="870"/>
      <point x="12" y="881" type="qcurve" smooth="yes"/>
      <point x="10" y="888"/>
      <point x="10" y="897" type="qcurve" smooth="yes"/>
      <point x="8" y="904"/>
      <point x="8" y="914" type="qcurve" smooth="yes"/>
      <point x="6" y="921"/>
      <point x="6" y="932" type="qcurve" smooth="yes"/>
      <point x="5" y="939"/>
      <point x="4" y="948" type="qcurve" smooth="yes"/>
      <point x="3" y="955" type="line"/>
      <point x="3" y="965" type="line"/>
      <point x="2" y="965" type="line"/>
      <point x="2" y="976" type="line"/>
      <point x="1" y="977" type="line"/>
      <point x="1" y="990" type="line"/>
      <point x="0" y="995" type="line"/>
      <point x="0" y="1105" type="line"/>
      <point x="1" y="1107" type="line"/>
      <point x="1" y="1113" type="line"/>
      <point x="2" y="1127" type="line"/>
      <point x="3" y="1130" type="line"/>
      <point x="5" y="1147" type="line" smooth="yes"/>
      <point x="7" y="1153"/>
      <point x="8" y="1162" type="qcurve" smooth="yes"/>
      <point x="16" y="1192" type="line" smooth="yes"/>
      <point x="18" y="1198"/>
      <point x="21" y="1206" type="qcurve" smooth="yes"/>
      <point x="23" y="1211"/>
      <point x="27" y="1219" type="qcurve" smooth="yes"/>
      <point x="33" y="1231" type="line" smooth="yes"/>
      <point x="37" y="1235"/>
      <point x="39" y="1241" type="qcurve"/>
      <point x="41" y="1242" type="line" smooth="yes"/>
      <point x="44" y="1247"/>
      <point x="50" y="1253" type="qcurve" smooth="yes"/>
      <point x="53" y="1256"/>
      <point x="57" y="1261" type="qcurve"/>
      <point x="59" y="1261" type="line"/>
      <point x="59" y="1262" type="line"/>
      <point x="70" y="1270" type="line" smooth="yes"/>
      <point x="74" y="1273"/>
      <point x="82" y="1276" type="qcurve" smooth="yes"/>
      <point x="88" y="1280"/>
      <point x="96" y="1282" type="qcurve" smooth="yes"/>
      <point x="102" y="1283"/>
    </contour>
    <contour>
      <point x="135" y="263" type="qcurve"/>
      <point x="137" y="260"/>
      <point x="142" y="257" type="qcurve" smooth="yes"/>
      <point x="142" y="256"/>
      <point x="144" y="255" type="qcurve" smooth="yes"/>
      <point x="147" y="251"/>
      <point x="152" y="246" type="qcurve" smooth="yes"/>
      <point x="168" y="230" type="line" smooth="yes"/>
      <point x="170" y="227"/>
      <point x="175" y="224" type="qcurve" smooth="yes"/>
      <point x="175" y="223"/>
      <point x="177" y="222" type="qcurve" smooth="yes"/>
      <point x="180" y="218"/>
      <point x="185" y="213" type="qcurve" smooth="yes"/>
      <point x="209" y="189" type="line" smooth="yes"/>
      <point x="211" y="186"/>
      <point x="216" y="183" type="qcurve" smooth="yes"/>
      <point x="216" y="182"/>
      <point x="218" y="181" type="qcurve" smooth="yes"/>
      <point x="221" y="177"/>
      <point x="226" y="172" type="qcurve" smooth="yes"/>
      <point x="250" y="148" type="line" smooth="yes"/>
      <point x="252" y="145"/>
      <point x="257" y="142" type="qcurve" smooth="yes"/>
      <point x="257" y="141"/>
      <point x="259" y="140" type="qcurve" smooth="yes"/>
      <point x="262" y="136"/>
      <point x="267" y="132" type="qcurve"/>
      <point x="265" y="128"/>
      <point x="260" y="122" type="qcurve" smooth="yes"/>
      <point x="256" y="119"/>
      <point x="251" y="114" type="qcurve" smooth="yes"/>
      <point x="235" y="98" type="line" smooth="yes"/>
      <point x="232" y="96"/>
      <point x="229" y="91" type="qcurve" smooth="yes"/>
      <point x="228" y="91"/>
      <point x="227" y="89" type="qcurve" smooth="yes"/>
      <point x="223" y="86"/>
      <point x="218" y="81" type="qcurve" smooth="yes"/>
      <point x="194" y="57" type="line" smooth="yes"/>
      <point x="191" y="55"/>
      <point x="188" y="50" type="qcurve" smooth="yes"/>
      <point x="187" y="50"/>
      <point x="186" y="48" type="qcurve" smooth="yes"/>
      <point x="182" y="45"/>
      <point x="177" y="40" type="qcurve" smooth="yes"/>
      <point x="153" y="16" type="line" smooth="yes"/>
      <point x="150" y="14"/>
      <point x="147" y="9" type="qcurve" smooth="yes"/>
      <point x="146" y="9"/>
      <point x="145" y="7" type="qcurve" smooth="yes"/>
      <point x="141" y="3"/>
      <point x="136" y="0" type="qcurve" smooth="yes"/>
      <point x="132" y="2"/>
      <point x="127" y="8" type="qcurve" smooth="yes"/>
      <point x="119" y="16" type="line" smooth="yes"/>
      <point x="117" y="19"/>
      <point x="112" y="22" type="qcurve" smooth="yes"/>
      <point x="112" y="23"/>
      <point x="110" y="24" type="qcurve" smooth="yes"/>
      <point x="107" y="28"/>
      <point x="102" y="33" type="qcurve" smooth="yes"/>
      <point x="86" y="49" type="line" smooth="yes"/>
      <point x="84" y="52"/>
      <point x="79" y="55" type="qcurve" smooth="yes"/>
      <point x="79" y="56"/>
      <point x="77" y="57" type="qcurve" smooth="yes"/>
      <point x="74" y="61"/>
      <point x="69" y="65" type="qcurve" smooth="yes"/>
      <point x="66" y="69"/>
      <point x="61" y="74" type="qcurve" smooth="yes"/>
      <point x="37" y="98" type="line" smooth="yes"/>
      <point x="35" y="101"/>
      <point x="30" y="104" type="qcurve" smooth="yes"/>
      <point x="30" y="105"/>
      <point x="28" y="106" type="qcurve" smooth="yes"/>
      <point x="25" y="110"/>
      <point x="20" y="115" type="qcurve" smooth="yes"/>
      <point x="12" y="123" type="line" smooth="yes"/>
      <point x="8" y="126"/>
      <point x="5" y="131" type="qcurve"/>
      <point x="21" y="147" type="line" smooth="yes"/>
      <point x="24" y="149"/>
      <point x="27" y="154" type="qcurve" smooth="yes"/>
      <point x="28" y="154"/>
      <point x="29" y="156" type="qcurve" smooth="yes"/>
      <point x="33" y="159"/>
      <point x="38" y="164" type="qcurve" smooth="yes"/>
      <point x="54" y="180" type="line" smooth="yes"/>
      <point x="57" y="182"/>
      <point x="60" y="187" type="qcurve" smooth="yes"/>
      <point x="61" y="187"/>
      <point x="62" y="189" type="qcurve" smooth="yes"/>
      <point x="66" y="192"/>
      <point x="70" y="197" type="qcurve" smooth="yes"/>
      <point x="74" y="200"/>
      <point x="79" y="205" type="qcurve" smooth="yes"/>
      <point x="103" y="229" type="line" smooth="yes"/>
      <point x="106" y="231"/>
      <point x="109" y="236" type="qcurve" smooth="yes"/>
      <point x="110" y="236"/>
      <point x="111" y="238" type="qcurve" smooth="yes"/>
      <point x="115" y="241"/>
      <point x="120" y="246" type="qcurve" smooth="yes"/>
      <point x="128" y="254" type="line" smooth="yes"/>
      <point x="132" y="258"/>
    </contour>
  </outline>
</glyph>
<glyph name="quotedbl" format="2">
  <advance width="516"/>
  <unicode hex="0022"/>
  <outline>
    <contour>
      <point x="446" y="835" type="line"/>
      <point x="375" y="659" type="line"/>
      <point x="306" y="659" type="line"/>
      <point x="306" y="1025" type="line"/>
      <point x="446" y="1025" type="line"/>
    </contour>
    <contour>
      <point x="228" y="835" type="line"/>
      <point x="157" y="659" type="line"/>
      <point x="89" y="659" type="line"/>
      <point x="90" y="828" type="line"/>
      <point x="90" y="1025" type="line"/>
      <point x="228" y="1025" type="line"/>
    </contour>
  </outline>
</glyph>
<glyph name="numbersign" format="2">
  <advance width="898"/>
  <unicode hex="0023"/>
  <outline>
    <contour>
      <point x="502" y="289" type="line"/>
      <point x="322" y="289" type="line"/>
      <point x="266" y="0" type="line"/>
      <point x="159" y="0" type="line"/>
      <point x="215" y="289" type="line"/>
      <point x="50" y="289" type="line"/>
      <point x="50" y="387" type="line"/>
      <point x="235" y="387" type="line"/>
      <point x="283" y="632" type="line"/>
      <point x="103" y="632" type="line"/>
      <point x="103" y="732" type="line"/>
      <point x="302" y="732" type="line"/>
      <point x="361" y="1025" type="line"/>
      <point x="466" y="1025" type="line"/>
      <point x="410" y="732" type="line"/>
      <point x="589" y="732" type="line"/>
      <point x="646" y="1025" type="line"/>
      <point x="753" y="1025" type="line"/>
      <point x="695" y="732" type="line"/>
      <point x="835" y="732" type="line"/>
      <point x="835" y="632" type="line"/>
      <point x="676" y="632" type="line"/>
      <point x="628" y="387" type="line"/>
      <point x="782" y="387" type="line"/>
      <point x="782" y="289" type="line"/>
      <point x="608" y="289" type="line"/>
      <point x="552" y="0" type="line"/>
      <point x="446" y="0" type="line"/>
    </contour>
    <contour>
      <point x="342" y="387" type="line"/>
      <point x="521" y="387" type="line"/>
      <point x="569" y="632" type="line"/>
      <point x="389" y="632" type="line"/>
    </contour>
  </outline>
</glyph>
<glyph name="dollar" format="2">
  <advance width="839"/>
  <unicode hex="0024"/>
  <outline>
    <contour>
      <point x="609" y="265" type="qcurve" smooth="yes"/>
      <point x="609" y="328"/>
      <point x="519" y="417"/>
      <point x="416" y="452" type="qcurve" smooth="yes"/>
      <point x="274" y="495"/>
      <point x="129" y="639"/>
      <point x="129" y="758" type="qcurve" smooth="yes"/>
      <point x="129" y="874"/>
      <point x="262" y="1022"/>
      <point x="379" y="1037" type="qcurve"/>
      <point x="379" y="1191" type="line"/>
      <point x="491" y="1191" type="line"/>
      <point x="491" y="1036" type="line"/>
      <point x="608" y="1020"/>
      <point x="738" y="858"/>
      <point x="738" y="722" type="qcurve"/>
      <point x="600" y="722" type="line"/>
      <point x="600" y="812"/>
      <point x="512" y="923"/>
      <point x="434" y="923" type="qcurve" smooth="yes"/>
      <point x="350" y="923"/>
      <point x="267" y="836"/>
      <point x="267" y="762" type="qcurve" smooth="yes"/>
      <point x="267" y="693"/>
      <point x="354" y="608"/>
      <point x="465" y="570" type="qcurve" smooth="yes"/>
      <point x="608" y="523"/>
      <point x="748" y="386"/>
      <point x="748" y="266" type="qcurve" smooth="yes"/>
      <point x="748" y="146"/>
      <point x="603" y="2"/>
      <point x="476" y="-11" type="qcurve"/>
      <point x="476" y="-146" type="line"/>
      <point x="366" y="-146" type="line"/>
      <point x="366" y="-12" type="line"/>
      <point x="245" y="1"/>
      <point x="168" y="77" type="qcurve" smooth="yes"/>
      <point x="93" y="149"/>
      <point x="93" y="287" type="qcurve" smooth="yes"/>
      <point x="93" y="298" type="line"/>
      <point x="94" y="302" type="line"/>
      <point x="227" y="302" type="line"/>
      <point x="227" y="194"/>
      <point x="337" y="102"/>
      <point x="416" y="102" type="qcurve" smooth="yes"/>
      <point x="507" y="102"/>
      <point x="609" y="188"/>
    </contour>
  </outline>
</glyph>
<glyph name="percent" format="2">
  <advance width="1054"/>
  <unicode hex="0025"/>
  <outline>
    <contour>
      <point x="570" y="252" type="line" smooth="yes"/>
      <point x="570" y="342"/>
      <point x="685" y="463"/>
      <point x="782" y="463" type="qcurve" smooth="yes"/>
      <point x="878" y="463"/>
      <point x="994" y="341"/>
      <point x="994" y="252" type="qcurve" smooth="yes"/>
      <point x="994" y="196" type="line" smooth="yes"/>
      <point x="994" y="106"/>
      <point x="878" y="-15"/>
      <point x="783" y="-15" type="qcurve" smooth="yes"/>
      <point x="686" y="-15"/>
      <point x="570" y="106"/>
      <point x="570" y="196" type="qcurve" smooth="yes"/>
    </contour>
    <contour>
      <point x="73" y="828" type="line" smooth="yes"/>
      <point x="73" y="917"/>
      <point x="188" y="1040"/>
      <point x="285" y="1040" type="qcurve" smooth="yes"/>
      <point x="382" y="1040"/>
      <point x="497" y="918"/>
      <point x="497" y="828" type="qcurve" smooth="yes"/>
      <point x="497" y="774" type="line" smooth="yes"/>
      <point x="497" y="684"/>
      <point x="382" y="563"/>
      <point x="287" y="563" type="qcurve" smooth="yes"/>
      <point x="190" y="563"/>
      <point x="73" y="685"/>
      <point x="73" y="774" type="qcurve" smooth="yes"/>
    </contour>
    <contour>
      <point x="322" y="78" type="line"/>
      <point x="246" y="125" type="line"/>
      <point x="746" y="926" type="line"/>
      <point x="822" y="878" type="line"/>
    </contour>
    <contour>
      <point x="672" y="196" type="line" smooth="yes"/>
      <point x="672" y="143"/>
      <point x="730" y="71"/>
      <point x="783" y="71" type="qcurve" smooth="yes"/>
      <point x="834" y="71"/>
      <point x="890" y="143"/>
      <point x="890" y="196" type="qcurve" smooth="yes"/>
      <point x="890" y="252" type="line" smooth="yes"/>
      <point x="890" y="304"/>
      <point x="833" y="377"/>
      <point x="782" y="377" type="qcurve" smooth="yes"/>
      <point x="730" y="377"/>
      <point x="672" y="304"/>
      <point x="672" y="252" type="qcurve" smooth="yes"/>
    </contour>
    <contour>
      <point x="176" y="774" type="line" smooth="yes"/>
      <point x="176" y="722"/>
      <point x="233" y="650"/>
      <point x="287" y="650" type="qcurve" smooth="yes"/>
      <point x="337" y="650"/>
      <point x="394" y="721"/>
      <point x="394" y="774" type="qcurve" smooth="yes"/>
      <point x="394" y="828" type="line" smooth="yes"/>
      <point x="394" y="879"/>
      <point x="337" y="954"/>
      <point x="285" y="954" type="qcurve" smooth="yes"/>
      <point x="232" y="954"/>
      <point x="176" y="880"/>
      <point x="176" y="828" type="qcurve" smooth="yes"/>
    </contour>
  </outline>
</glyph>
<glyph name="ampersand" format="2">
  <advance width="898"/>
  <unicode hex="0026"/>
  <outline>
    <contour>
      <point x="45" y="276" type="qcurve" smooth="yes"/>
      <point x="45" y="362"/>
      <point x="144" y="491"/>
      <point x="243" y="555" type="qcurve"/>
      <point x="188" y="625"/>
      <point x="134" y="734"/>
      <point x="134" y="792" type="qcurve" smooth="yes"/>
      <point x="134" y="910"/>
      <point x="272" y="1040"/>
      <point x="393" y="1040" type="qcurve" smooth="yes"/>
      <point x="503" y="1040"/>
      <point x="642" y="912"/>
      <point x="642" y="822" type="qcurve" smooth="yes"/>
      <point x="642" y="753"/>
      <point x="569" y="652"/>
      <point x="496" y="599" type="qcurve" smooth="yes"/>
      <point x="420" y="543" type="line"/>
      <point x="659" y="255" type="line"/>
      <point x="688" y="301"/>
      <point x="720" y="412"/>
      <point x="720" y="474" type="qcurve"/>
      <point x="844" y="474" type="line"/>
      <point x="844" y="381"/>
      <point x="790" y="223"/>
      <point x="738" y="160" type="qcurve"/>
      <point x="868" y="3" type="line"/>
      <point x="866" y="0" type="line"/>
      <point x="705" y="0" type="line"/>
      <point x="645" y="72" type="line"/>
      <point x="588" y="30"/>
      <point x="452" y="-15"/>
      <point x="378" y="-15" type="qcurve" smooth="yes"/>
      <point x="226" y="-15"/>
      <point x="45" y="147"/>
    </contour>
    <contour>
      <point x="378" y="94" type="qcurve" smooth="yes"/>
      <point x="430" y="94"/>
      <point x="528" y="129"/>
      <point x="572" y="160" type="qcurve"/>
      <point x="318" y="466" type="line"/>
      <point x="290" y="446" type="line" smooth="yes"/>
      <point x="226" y="398"/>
      <point x="184" y="311"/>
      <point x="184" y="276" type="qcurve" smooth="yes"/>
      <point x="184" y="196"/>
      <point x="283" y="94"/>
    </contour>
    <contour>
      <point x="273" y="794" type="qcurve" smooth="yes"/>
      <point x="273" y="757"/>
      <point x="311" y="675"/>
      <point x="350" y="627" type="qcurve"/>
      <point x="446" y="694" type="line" smooth="yes"/>
      <point x="486" y="721"/>
      <point x="516" y="783"/>
      <point x="516" y="822" type="qcurve" smooth="yes"/>
      <point x="516" y="864"/>
      <point x="447" y="931"/>
      <point x="393" y="931" type="qcurve" smooth="yes"/>
      <point x="335" y="931"/>
      <point x="273" y="851"/>
    </contour>
  </outline>
</glyph>
<glyph name="quotesingle" format="2">
  <advance width="314"/>
  <unicode hex="0027"/>
  <outline>
    <contour>
      <point x="228" y="868" type="line"/>
      <point x="157" y="670" type="line"/>
      <point x="89" y="670" type="line"/>
      <point x="90" y="856" type="line"/>
      <point x="90" y="1025" type="line"/>
      <point x="228" y="1025" type="line"/>
    </contour>
  </outline>
</glyph>
<glyph name="parenleft" format="2">
  <advance width="477"/>
  <unicode hex="0028"/>
  <outline>
    <contour>
      <point x="94" y="416" type="line" smooth="yes"/>
      <point x="94" y="694"/>
      <point x="317" y="1086"/>
      <point x="440" y="1152" type="qcurve"/>
      <point x="444" y="1151" type="line"/>
      <point x="470" y="1069" type="line"/>
      <point x="375" y="994"/>
      <point x="231" y="662"/>
      <point x="231" y="417" type="qcurve" smooth="yes"/>
      <point x="231" y="408" type="line" smooth="yes"/>
      <point x="231" y="165"/>
      <point x="374" y="-168"/>
      <point x="470" y="-250" type="qcurve"/>
      <point x="444" y="-326" type="line"/>
      <point x="440" y="-326" type="line"/>
      <point x="317" y="-261"/>
      <point x="94" y="132"/>
      <point x="94" y="410" type="qcurve" smooth="yes"/>
    </contour>
  </outline>
</glyph>
<glyph name="parenright" format="2">
  <advance width="484"/>
  <unicode hex="0029"/>
  <outline>
    <contour>
      <point x="382" y="410" type="line" smooth="yes"/>
      <point x="382" y="131"/>
      <point x="158" y="-261"/>
      <point x="35" y="-326" type="qcurve"/>
      <point x="30" y="-326" type="line"/>
      <point x="4" y="-250" type="line"/>
      <point x="99" y="-176"/>
      <point x="244" y="163"/>
      <point x="244" y="408" type="qcurve" smooth="yes"/>
      <point x="244" y="417" type="line" smooth="yes"/>
      <point x="244" y="658"/>
      <point x="95" y="998"/>
      <point x="4" y="1075" type="qcurve"/>
      <point x="30" y="1152" type="line"/>
      <point x="35" y="1152" type="line"/>
      <point x="157" y="1086"/>
      <point x="382" y="694"/>
      <point x="382" y="416" type="qcurve" smooth="yes"/>
    </contour>
  </outline>
</glyph>
<glyph name="asterisk" format="2">
  <advance width="622"/>
  <unicode hex="002A"/>
  <outline>
    <contour>
      <point x="228" y="490" type="line"/>
      <point x="62" y="537" type="line"/>
      <point x="97" y="646" type="line"/>
      <point x="262" y="582" type="line"/>
      <point x="255" y="762" type="line"/>
      <point x="369" y="762" type="line"/>
      <point x="362" y="578" type="line"/>
      <point x="526" y="641" type="line"/>
      <point x="560" y="530" type="line"/>
      <point x="389" y="483" type="line"/>
      <point x="497" y="342" type="line"/>
      <point x="404" y="274" type="line"/>
      <point x="306" y="428" type="line"/>
      <point x="210" y="280" type="line"/>
      <point x="117" y="345" type="line"/>
    </contour>
  </outline>
</glyph>
<glyph name="plus" format="2">
  <advance width="818"/>
  <unicode hex="002B"/>
  <outline>
    <contour>
      <point x="477" y="551" type="line"/>
      <point x="758" y="551" type="line"/>
      <point x="758" y="426" type="line"/>
      <point x="477" y="426" type="line"/>
      <point x="477" y="103" type="line"/>
      <point x="338" y="103" type="line"/>
      <point x="338" y="426" type="line"/>
      <point x="54" y="426" type="line"/>
      <point x="54" y="551" type="line"/>
      <point x="338" y="551" type="line"/>
      <point x="338" y="849" type="line"/>
      <point x="477" y="849" type="line"/>
    </contour>
  </outline>
</glyph>
<glyph name="comma" format="2">
  <advance width="284"/>
  <unicode hex="002C"/>
  <outline>
    <contour>
      <point x="222" y="34" type="line"/>
      <point x="116" y="-182" type="line"/>
      <point x="34" y="-182" type="line"/>
      <point x="82" y="41" type="line"/>
      <point x="82" y="156" type="line"/>
      <point x="222" y="156" type="line"/>
    </contour>
  </outline>
</glyph>
<glyph name="hyphen" format="2">
  <advance width="650"/>
  <unicode hex="002D"/>
  <outline>
    <contour>
      <point x="534" y="378" type="line"/>
      <point x="118" y="378" type="line"/>
      <point x="118" y="487" type="line"/>
      <point x="534" y="487" type="line"/>
    </contour>
  </outline>
</glyph>
<glyph name="period" format="2">
  <advance width="386"/>
  <unicode hex="002E"/>
  <outline>
    <contour>
      <point x="252" y="0" type="line"/>
      <point x="114" y="0" type="line"/>
      <point x="114" y="142" type="line"/>
      <point x="252" y="142" type="line"/>
    </contour>
  </outline>
</glyph>
<glyph name="slash" format="2">
  <advance width="598"/>
  <unicode hex="002F"/>
  <outline>
    <contour>
      <point x="130" y="-88" type="line"/>
      <point x="11" y="-88" type="line"/>
      <point x="439" y="1025" type="line"/>
      <point x="557" y="1025" type="line"/>
    </contour>
  </outline>
</glyph>
<glyph name="zero" format="2">
  <advance width="811"/>
  <unicode hex="0030"/>
  <outline>
    <contour>
      <point x="732" y="362" type="line" smooth="yes"/>
      <point x="732" y="188"/>
      <point x="555" y="-15"/>
      <point x="406" y="-15" type="qcurve" smooth="yes"/>
      <point x="258" y="-15"/>
      <point x="79" y="188"/>
      <point x="79" y="362" type="qcurve" smooth="yes"/>
      <point x="79" y="663" type="line" smooth="yes"/>
      <point x="79" y="836"/>
      <point x="256" y="1040"/>
      <point x="405" y="1040" type="qcurve" smooth="yes"/>
      <point x="554" y="1040"/>
      <point x="732" y="836"/>
      <point x="732" y="663" type="qcurve" smooth="yes"/>
    </contour>
    <contour>
      <point x="593" y="692" type="line" smooth="yes"/>
      <point x="593" y="802"/>
      <point x="494" y="931"/>
      <point x="405" y="931" type="qcurve" smooth="yes"/>
      <point x="315" y="931"/>
      <point x="218" y="802"/>
      <point x="218" y="692" type="qcurve" smooth="yes"/>
      <point x="218" y="334" type="line" smooth="yes"/>
      <point x="218" y="223"/>
      <point x="318" y="94"/>
      <point x="406" y="94" type="qcurve" smooth="yes"/>
      <point x="496" y="94"/>
      <point x="593" y="222"/>
      <point x="593" y="334" type="qcurve" smooth="yes"/>
    </contour>
  </outline>
</glyph>
<glyph name="one" format="2">
  <advance width="811"/>
  <unicode hex="0031"/>
  <outline>
    <contour>
      <point x="500" y="0" type="line"/>
      <point x="361" y="0" type="line"/>
      <point x="361" y="897" type="line"/>
      <point x="138" y="895" type="line"/>
      <point x="138" y="1002" type="line"/>
      <point x="500" y="1040" type="line"/>
    </contour>
  </outline>
</glyph>
<glyph name="two" format="2">
  <advance width="811"/>
  <unicode hex="0032"/>
  <outline>
    <contour>
      <point x="742" y="0" type="line"/>
      <point x="106" y="0" type="line"/>
      <point x="106" y="95" type="line"/>
      <point x="428" y="478" type="line" smooth="yes"/>
      <point x="513" y="582"/>
      <point x="574" y="706"/>
      <point x="574" y="769" type="qcurve" smooth="yes"/>
      <point x="574" y="840"/>
      <point x="491" y="931"/>
      <point x="418" y="931" type="qcurve" smooth="yes"/>
      <point x="328" y="931"/>
      <point x="232" y="819"/>
      <point x="232" y="737" type="qcurve"/>
      <point x="98" y="737" type="line"/>
      <point x="97" y="741" type="line"/>
      <point x="97" y="749" type="line" smooth="yes"/>
      <point x="97" y="869"/>
      <point x="268" y="1040"/>
      <point x="418" y="1040" type="qcurve" smooth="yes"/>
      <point x="555" y="1040"/>
      <point x="713" y="888"/>
      <point x="713" y="767" type="qcurve" smooth="yes"/>
      <point x="713" y="687"/>
      <point x="624" y="531"/>
      <point x="532" y="414" type="qcurve"/>
      <point x="274" y="112" type="line"/>
      <point x="275" y="108" type="line"/>
      <point x="742" y="108" type="line"/>
    </contour>
  </outline>
</glyph>
<glyph name="three" format="2">
  <advance width="811"/>
  <unicode hex="0033"/>
  <outline>
    <contour>
      <point x="407" y="582" type="line" smooth="yes"/>
      <point x="501" y="582"/>
      <point x="578" y="675"/>
      <point x="578" y="758" type="qcurve" smooth="yes"/>
      <point x="578" y="835"/>
      <point x="494" y="931"/>
      <point x="411" y="931" type="qcurve" smooth="yes"/>
      <point x="331" y="931"/>
      <point x="226" y="831"/>
      <point x="226" y="757" type="qcurve"/>
      <point x="94" y="757" type="line"/>
      <point x="91" y="762" type="line"/>
      <point x="91" y="772" type="line" smooth="yes"/>
      <point x="91" y="880"/>
      <point x="270" y="1040"/>
      <point x="411" y="1040" type="qcurve" smooth="yes"/>
      <point x="554" y="1040"/>
      <point x="716" y="896"/>
      <point x="716" y="755" type="qcurve" smooth="yes"/>
      <point x="716" y="684"/>
      <point x="641" y="565"/>
      <point x="573" y="532" type="qcurve"/>
      <point x="650" y="502"/>
      <point x="731" y="375"/>
      <point x="731" y="286" type="qcurve" smooth="yes"/>
      <point x="731" y="144"/>
      <point x="554" y="-15"/>
      <point x="411" y="-15" type="qcurve" smooth="yes"/>
      <point x="280" y="-15"/>
      <point x="181" y="62" type="qcurve" smooth="yes"/>
      <point x="85" y="136"/>
      <point x="85" y="256" type="qcurve" smooth="yes"/>
      <point x="85" y="266" type="line"/>
      <point x="86" y="270" type="line"/>
      <point x="218" y="270" type="line"/>
      <point x="218" y="195"/>
      <point x="326" y="94"/>
      <point x="411" y="94" type="qcurve" smooth="yes"/>
      <point x="495" y="94"/>
      <point x="593" y="199"/>
      <point x="593" y="283" type="qcurve" smooth="yes"/>
      <point x="593" y="379"/>
      <point x="503" y="475"/>
      <point x="407" y="475" type="qcurve" smooth="yes"/>
      <point x="294" y="475" type="line"/>
      <point x="294" y="582" type="line"/>
    </contour>
  </outline>
</glyph>
<glyph name="four" format="2">
  <advance width="811"/>
  <unicode hex="0034"/>
  <outline>
    <contour>
      <point x="628" y="345" type="line"/>
      <point x="770" y="345" type="line"/>
      <point x="770" y="237" type="line"/>
      <point x="628" y="237" type="line"/>
      <point x="628" y="0" type="line"/>
      <point x="491" y="0" type="line"/>
      <point x="491" y="237" type="line"/>
      <point x="51" y="237" type="line"/>
      <point x="51" y="315" type="line"/>
      <point x="482" y="1025" type="line"/>
      <point x="628" y="1025" type="line"/>
    </contour>
    <contour>
      <point x="199" y="345" type="line"/>
      <point x="491" y="345" type="line"/>
      <point x="491" y="826" type="line"/>
      <point x="486" y="826" type="line"/>
      <point x="474" y="791" type="line"/>
    </contour>
  </outline>
</glyph>
<glyph name="five" format="2">
  <advance width="811"/>
  <unicode hex="0035"/>
  <outline>
    <contour>
      <point x="123" y="456" type="line"/>
      <point x="182" y="1025" type="line"/>
      <point x="695" y="1025" type="line"/>
      <point x="695" y="902" type="line"/>
      <point x="299" y="902" type="line"/>
      <point x="266" y="607" type="line"/>
      <point x="300" y="632"/>
      <point x="379" y="663"/>
      <point x="431" y="663" type="qcurve" smooth="yes"/>
      <point x="440" y="663" type="line" smooth="yes"/>
      <point x="576" y="663"/>
      <point x="734" y="484"/>
      <point x="734" y="326" type="qcurve" smooth="yes"/>
      <point x="734" y="172"/>
      <point x="569" y="-15"/>
      <point x="410" y="-15" type="qcurve" smooth="yes"/>
      <point x="280" y="-15"/>
      <point x="194" y="56" type="qcurve" smooth="yes"/>
      <point x="111" y="124"/>
      <point x="111" y="254" type="qcurve" smooth="yes"/>
      <point x="111" y="266" type="line"/>
      <point x="112" y="270" type="line"/>
      <point x="238" y="270" type="line"/>
      <point x="238" y="186"/>
      <point x="334" y="94"/>
      <point x="410" y="94" type="qcurve" smooth="yes"/>
      <point x="498" y="94"/>
      <point x="596" y="218"/>
      <point x="596" y="326" type="qcurve" smooth="yes"/>
      <point x="596" y="424"/>
      <point x="498" y="544"/>
      <point x="410" y="544" type="qcurve" smooth="yes"/>
      <point x="329" y="544"/>
      <point x="255" y="494"/>
      <point x="238" y="443" type="qcurve"/>
    </contour>
  </outline>
</glyph>
<glyph name="six" format="2">
  <advance width="811"/>
  <unicode hex="0036"/>
  <outline>
    <contour>
      <point x="451" y="1040" type="qcurve" smooth="yes"/>
      <point x="512" y="1040"/>
      <point x="630" y="1015"/>
      <point x="669" y="998" type="qcurve"/>
      <point x="639" y="891" type="line"/>
      <point x="599" y="910"/>
      <point x="510" y="931"/>
      <point x="451" y="931" type="qcurve" smooth="yes"/>
      <point x="354" y="931"/>
      <point x="234" y="766"/>
      <point x="234" y="640" type="qcurve" smooth="yes"/>
      <point x="234" y="561" type="line"/>
      <point x="277" y="604"/>
      <point x="395" y="653"/>
      <point x="463" y="653" type="qcurve" smooth="yes"/>
      <point x="595" y="653"/>
      <point x="749" y="475"/>
      <point x="749" y="331" type="qcurve" smooth="yes"/>
      <point x="749" y="173"/>
      <point x="577" y="-15"/>
      <point x="430" y="-15" type="qcurve" smooth="yes"/>
      <point x="288" y="-15"/>
      <point x="97" y="202"/>
      <point x="97" y="389" type="qcurve" smooth="yes"/>
      <point x="97" y="625" type="line" smooth="yes"/>
      <point x="97" y="804"/>
      <point x="301" y="1040"/>
    </contour>
    <contour>
      <point x="418" y="549" type="qcurve" smooth="yes"/>
      <point x="353" y="549"/>
      <point x="258" y="494"/>
      <point x="234" y="446" type="qcurve"/>
      <point x="234" y="375" type="line" smooth="yes"/>
      <point x="234" y="245"/>
      <point x="348" y="94"/>
      <point x="430" y="94" type="qcurve" smooth="yes"/>
      <point x="517" y="94"/>
      <point x="610" y="226"/>
      <point x="610" y="331" type="qcurve" smooth="yes"/>
      <point x="610" y="431"/>
      <point x="510" y="549"/>
    </contour>
  </outline>
</glyph>
<glyph name="seven" format="2">
  <advance width="811"/>
  <unicode hex="0037"/>
  <outline>
    <contour>
      <point x="748" y="916" type="line"/>
      <point x="554" y="685"/>
      <point x="417" y="332"/>
      <point x="417" y="112" type="qcurve" smooth="yes"/>
      <point x="417" y="0" type="line"/>
      <point x="279" y="0" type="line"/>
      <point x="279" y="112" type="line" smooth="yes"/>
      <point x="279" y="344"/>
      <point x="450" y="716"/>
      <point x="612" y="916" type="qcurve"/>
      <point x="69" y="916" type="line"/>
      <point x="69" y="1025" type="line"/>
      <point x="748" y="1025" type="line"/>
    </contour>
  </outline>
</glyph>
<glyph name="eight" format="2">
  <advance width="811"/>
  <unicode hex="0038"/>
  <outline>
    <contour>
      <point x="711" y="763" type="qcurve" smooth="yes"/>
      <point x="711" y="683"/>
      <point x="622" y="562"/>
      <point x="546" y="530" type="qcurve"/>
      <point x="634" y="501"/>
      <point x="739" y="368"/>
      <point x="739" y="282" type="qcurve" smooth="yes"/>
      <point x="739" y="140"/>
      <point x="555" y="-15"/>
      <point x="414" y="-15" type="qcurve" smooth="yes"/>
      <point x="262" y="-15"/>
      <point x="72" y="140"/>
      <point x="72" y="282" type="qcurve" smooth="yes"/>
      <point x="72" y="369"/>
      <point x="179" y="501"/>
      <point x="271" y="531" type="qcurve"/>
      <point x="192" y="562"/>
      <point x="100" y="683"/>
      <point x="100" y="763" type="qcurve" smooth="yes"/>
      <point x="100" y="898"/>
      <point x="273" y="1040"/>
      <point x="412" y="1040" type="qcurve" smooth="yes"/>
      <point x="543" y="1040"/>
      <point x="711" y="897"/>
    </contour>
    <contour>
      <point x="601" y="284" type="qcurve" smooth="yes"/>
      <point x="601" y="368"/>
      <point x="492" y="477"/>
      <point x="412" y="477" type="qcurve" smooth="yes"/>
      <point x="324" y="477"/>
      <point x="210" y="368"/>
      <point x="210" y="284" type="qcurve" smooth="yes"/>
      <point x="210" y="197"/>
      <point x="324" y="94"/>
      <point x="414" y="94" type="qcurve" smooth="yes"/>
      <point x="494" y="94"/>
      <point x="601" y="198"/>
    </contour>
    <contour>
      <point x="572" y="762" type="qcurve" smooth="yes"/>
      <point x="572" y="835"/>
      <point x="481" y="931"/>
      <point x="412" y="931" type="qcurve" smooth="yes"/>
      <point x="336" y="931"/>
      <point x="239" y="838"/>
      <point x="239" y="762" type="qcurve" smooth="yes"/>
      <point x="239" y="683"/>
      <point x="338" y="586"/>
      <point x="414" y="586" type="qcurve" smooth="yes"/>
      <point x="482" y="586"/>
      <point x="572" y="683"/>
    </contour>
  </outline>
</glyph>
<glyph name="nine" format="2">
  <advance width="811"/>
  <unicode hex="0039"/>
  <outline>
    <contour>
      <point x="353" y="94" type="qcurve" smooth="yes"/>
      <point x="453" y="94"/>
      <point x="575" y="231"/>
      <point x="575" y="358" type="qcurve" smooth="yes"/>
      <point x="575" y="446" type="line"/>
      <point x="541" y="396"/>
      <point x="442" y="344"/>
      <point x="382" y="344" type="qcurve" smooth="yes"/>
      <point x="234" y="344"/>
      <point x="65" y="526"/>
      <point x="65" y="688" type="qcurve" smooth="yes"/>
      <point x="65" y="843"/>
      <point x="245" y="1040"/>
      <point x="376" y="1040" type="qcurve" smooth="yes"/>
      <point x="530" y="1040"/>
      <point x="715" y="846"/>
      <point x="715" y="670" type="qcurve" smooth="yes"/>
      <point x="715" y="360" type="line" smooth="yes"/>
      <point x="715" y="183"/>
      <point x="512" y="-15"/>
      <point x="353" y="-15" type="qcurve" smooth="yes"/>
      <point x="299" y="-15"/>
      <point x="185" y="8"/>
      <point x="135" y="30" type="qcurve"/>
      <point x="157" y="135" type="line"/>
      <point x="204" y="113"/>
      <point x="293" y="94"/>
    </contour>
    <contour>
      <point x="382" y="452" type="qcurve" smooth="yes"/>
      <point x="454" y="452"/>
      <point x="554" y="519"/>
      <point x="575" y="570" type="qcurve"/>
      <point x="575" y="692" type="line" smooth="yes"/>
      <point x="575" y="806"/>
      <point x="474" y="931"/>
      <point x="380" y="931" type="qcurve" smooth="yes"/>
      <point x="305" y="931"/>
      <point x="204" y="797"/>
      <point x="204" y="688" type="qcurve" smooth="yes"/>
      <point x="204" y="582"/>
      <point x="297" y="452"/>
    </contour>
  </outline>
</glyph>
<glyph name="colon" format="2">
  <advance width="363"/>
  <unicode hex="003A"/>
  <outline>
    <contour>
      <point x="252" y="0" type="line"/>
      <point x="114" y="0" type="line"/>
      <point x="114" y="142" type="line"/>
      <point x="252" y="142" type="line"/>
    </contour>
    <contour>
      <point x="252" y="617" type="line"/>
      <point x="114" y="617" type="line"/>
      <point x="114" y="758" type="line"/>
      <point x="252" y="758" type="line"/>
    </contour>
  </outline>
</glyph>
<glyph name="semicolon" format="2">
  <advance width="370"/>
  <unicode hex="003B"/>
  <outline>
    <contour>
      <point x="258" y="34" type="line"/>
      <point x="152" y="-182" type="line"/>
      <point x="70" y="-182" type="line"/>
      <point x="118" y="41" type="line"/>
      <point x="118" y="156" type="line"/>
      <point x="258" y="156" type="line"/>
    </contour>
    <contour>
      <point x="253" y="617" type="line"/>
      <point x="114" y="617" type="line"/>
      <point x="114" y="758" type="line"/>
      <point x="253" y="758" type="line"/>
    </contour>
  </outline>
</glyph>
<glyph name="less" format="2">
  <advance width="732"/>
  <unicode hex="003C"/>
  <outline>
    <contour>
      <point x="230" y="407" type="line"/>
      <point x="170" y="395" type="line"/>
      <point x="170" y="390" type="line"/>
      <point x="230" y="378" type="line"/>
      <point x="625" y="217" type="line"/>
      <point x="625" y="76" type="line"/>
      <point x="50" y="342" type="line"/>
      <point x="50" y="447" type="line"/>
      <point x="625" y="713" type="line"/>
      <point x="625" y="572" type="line"/>
    </contour>
  </outline>
</glyph>
<glyph name="equal" format="2">
  <advance width="811"/>
  <unicode hex="003D"/>
  <outline>
    <contour>
      <point x="694" y="579" type="line"/>
      <point x="107" y="579" type="line"/>
      <point x="107" y="695" type="line"/>
      <point x="694" y="695" type="line"/>
    </contour>
    <contour>
      <point x="694" y="287" type="line"/>
      <point x="107" y="287" type="line"/>
      <point x="107" y="402" type="line"/>
      <point x="694" y="402" type="line"/>
    </contour>
  </outline>
</glyph>
<glyph name="greater" format="2">
  <advance width="754"/>
  <unicode hex="003E"/>
  <outline>
    <contour>
      <point x="96" y="562" type="line"/>
      <point x="96" y="698" type="line"/>
      <point x="698" y="433" type="line"/>
      <point x="698" y="328" type="line"/>
      <point x="96" y="62" type="line"/>
      <point x="96" y="199" type="line"/>
      <point x="517" y="367" type="line"/>
      <point x="577" y="378" type="line"/>
      <point x="577" y="383" type="line"/>
      <point x="517" y="397" type="line"/>
    </contour>
  </outline>
</glyph>
<glyph name="question" format="2">
  <advance width="685"/>
  <unicode hex="003F"/>
  <outline>
    <contour>
      <point x="250" y="289" type="line"/>
      <point x="250" y="390"/>
      <point x="284" y="470"/>
      <point x="357" y="534" type="qcurve"/>
      <point x="426" y="616"/>
      <point x="485" y="706"/>
      <point x="485" y="768" type="qcurve" smooth="yes"/>
      <point x="485" y="843"/>
      <point x="406" y="923"/>
      <point x="332" y="923" type="qcurve" smooth="yes"/>
      <point x="267" y="923"/>
      <point x="178" y="854"/>
      <point x="178" y="786" type="qcurve"/>
      <point x="45" y="786" type="line"/>
      <point x="43" y="790" type="line"/>
      <point x="43" y="795" type="line" smooth="yes"/>
      <point x="43" y="905"/>
      <point x="205" y="1040"/>
      <point x="332" y="1040" type="qcurve" smooth="yes"/>
      <point x="470" y="1040"/>
      <point x="624" y="898"/>
      <point x="624" y="772" type="qcurve" smooth="yes"/>
      <point x="624" y="681"/>
      <point x="525" y="530"/>
      <point x="442" y="451" type="qcurve" smooth="yes"/>
      <point x="405" y="414"/>
      <point x="389" y="353"/>
      <point x="389" y="289" type="qcurve"/>
    </contour>
    <contour>
      <point x="394" y="0" type="line"/>
      <point x="248" y="0" type="line"/>
      <point x="248" y="146" type="line"/>
      <point x="394" y="146" type="line"/>
    </contour>
  </outline>
</glyph>
<glyph name="at" format="2">
  <advance width="1290"/>
  <unicode hex="0040"/>
  <outline>
    <contour>
      <point x="1220" y="354" type="qcurve" smooth="yes"/>
      <point x="1213" y="203"/>
      <point x="1057" y="-15"/>
      <point x="901" y="-15" type="qcurve" smooth="yes"/>
      <point x="850" y="-15"/>
      <point x="775" y="44"/>
      <point x="758" y="97" type="qcurve"/>
      <point x="723" y="41"/>
      <point x="622" y="-15"/>
      <point x="554" y="-15" type="qcurve" smooth="yes"/>
      <point x="466" y="-15"/>
      <point x="418" y="70" type="qcurve" smooth="yes"/>
      <point x="380" y="138"/>
      <point x="380" y="240" type="qcurve" smooth="yes"/>
      <point x="380" y="265"/>
      <point x="382" y="293" type="qcurve" smooth="yes"/>
      <point x="398" y="475"/>
      <point x="560" y="695"/>
      <point x="676" y="695" type="qcurve" smooth="yes"/>
      <point x="750" y="695"/>
      <point x="839" y="659"/>
      <point x="892" y="622" type="qcurve"/>
      <point x="890" y="618" type="line"/>
      <point x="894" y="618" type="line"/>
      <point x="858" y="206" type="line" smooth="yes"/>
      <point x="856" y="187"/>
      <point x="856" y="172" type="qcurve" smooth="yes"/>
      <point x="856" y="122"/>
      <point x="895" y="70"/>
      <point x="931" y="70" type="qcurve" smooth="yes"/>
      <point x="1018" y="70"/>
      <point x="1121" y="230"/>
      <point x="1127" y="354" type="qcurve" smooth="yes"/>
      <point x="1128" y="378"/>
      <point x="1128" y="401" type="qcurve" smooth="yes"/>
      <point x="1128" y="636"/>
      <point x="914" y="923"/>
      <point x="677" y="923" type="qcurve" smooth="yes"/>
      <point x="459" y="923"/>
      <point x="195" y="598"/>
      <point x="185" y="336" type="qcurve" smooth="yes"/>
      <point x="184" y="312"/>
      <point x="184" y="289" type="qcurve" smooth="yes"/>
      <point x="184" y="58"/>
      <point x="410" y="-236"/>
      <point x="630" y="-236" type="qcurve" smooth="yes"/>
      <point x="693" y="-236"/>
      <point x="819" y="-206"/>
      <point x="863" y="-182" type="qcurve"/>
      <point x="890" y="-256" type="line"/>
      <point x="843" y="-287"/>
      <point x="697" y="-318"/>
      <point x="627" y="-318" type="qcurve" smooth="yes"/>
      <point x="360" y="-318"/>
      <point x="214" y="-142" type="qcurve" smooth="yes"/>
      <point x="79" y="20"/>
      <point x="79" y="291" type="qcurve" smooth="yes"/>
      <point x="79" y="313"/>
      <point x="80" y="336" type="qcurve" smooth="yes"/>
      <point x="94" y="634"/>
      <point x="417" y="1007"/>
      <point x="679" y="1007" type="qcurve" smooth="yes"/>
      <point x="946" y="1007"/>
      <point x="1089" y="832" type="qcurve" smooth="yes"/>
      <point x="1221" y="669"/>
      <point x="1221" y="397" type="qcurve" smooth="yes"/>
      <point x="1221" y="376"/>
    </contour>
    <contour>
      <point x="507" y="293" type="qcurve" smooth="yes"/>
      <point x="505" y="267"/>
      <point x="505" y="245" type="qcurve" smooth="yes"/>
      <point x="505" y="180"/>
      <point x="545" y="89"/>
      <point x="597" y="89" type="qcurve" smooth="yes"/>
      <point x="642" y="89"/>
      <point x="716" y="123"/>
      <point x="748" y="167" type="qcurve"/>
      <point x="748" y="176" type="line" smooth="yes"/>
      <point x="748" y="181"/>
      <point x="748" y="195"/>
      <point x="749" y="206" type="qcurve" smooth="yes"/>
      <point x="782" y="586" type="line"/>
      <point x="764" y="593"/>
      <point x="723" y="604"/>
      <point x="702" y="604" type="qcurve" smooth="yes"/>
      <point x="614" y="604"/>
      <point x="521" y="449"/>
    </contour>
  </outline>
</glyph>
<glyph name="A" format="2">
  <advance width="912"/>
  <unicode hex="0041"/>
  <outline>
    <contour>
      <point x="650" y="264" type="line"/>
      <point x="263" y="264" type="line"/>
      <point x="172" y="0" type="line"/>
      <point x="30" y="0" type="line"/>
      <point x="399" y="1025" type="line"/>
      <point x="519" y="1025" type="line"/>
      <point x="881" y="0" type="line"/>
      <point x="739" y="0" type="line"/>
    </contour>
    <contour>
      <point x="304" y="380" type="line"/>
      <point x="610" y="380" type="line"/>
      <point x="460" y="820" type="line"/>
      <point x="456" y="820" type="line"/>
    </contour>
  </outline>
</glyph>
<glyph name="B" format="2">
  <advance width="916"/>
  <unicode hex="0042"/>
  <outline>
    <contour>
      <point x="120" y="0" type="line"/>
      <point x="120" y="1025" type="line"/>
      <point x="454" y="1025" type="line" smooth="yes"/>
      <point x="614" y="1025"/>
      <point x="797" y="886"/>
      <point x="797" y="748" type="qcurve" smooth="yes"/>
      <point x="797" y="681"/>
      <point x="714" y="577"/>
      <point x="647" y="549" type="qcurve"/>
      <point x="748" y="535"/>
      <point x="865" y="389"/>
      <point x="865" y="290" type="qcurve" smooth="yes"/>
      <point x="865" y="149"/>
      <point x="682" y="0"/>
      <point x="526" y="0" type="qcurve" smooth="yes"/>
    </contour>
    <contour>
      <point x="258" y="481" type="line"/>
      <point x="258" y="108" type="line"/>
      <point x="526" y="108" type="line" smooth="yes"/>
      <point x="622" y="108"/>
      <point x="726" y="202"/>
      <point x="726" y="288" type="qcurve" smooth="yes"/>
      <point x="726" y="373"/>
      <point x="618" y="477"/>
      <point x="528" y="481" type="qcurve"/>
    </contour>
    <contour>
      <point x="258" y="590" type="line"/>
      <point x="483" y="590" type="line" smooth="yes"/>
      <point x="560" y="590"/>
      <point x="658" y="674"/>
      <point x="658" y="750" type="qcurve" smooth="yes"/>
      <point x="658" y="834"/>
      <point x="553" y="916"/>
      <point x="454" y="916" type="qcurve" smooth="yes"/>
      <point x="258" y="916" type="line"/>
    </contour>
  </outline>
</glyph>
<glyph name="C" format="2">
  <advance width="914"/>
  <unicode hex="0043"/>
  <outline>
    <contour>
      <point x="851" y="328" type="line"/>
      <point x="853" y="324" type="line"/>
      <point x="853" y="316" type="line" smooth="yes"/>
      <point x="853" y="176"/>
      <point x="647" y="-15"/>
      <point x="476" y="-15" type="qcurve" smooth="yes"/>
      <point x="302" y="-15"/>
      <point x="82" y="231"/>
      <point x="82" y="421" type="qcurve" smooth="yes"/>
      <point x="82" y="604" type="line" smooth="yes"/>
      <point x="82" y="792"/>
      <point x="302" y="1040"/>
      <point x="476" y="1040" type="qcurve" smooth="yes"/>
      <point x="650" y="1040"/>
      <point x="753" y="947" type="qcurve" smooth="yes"/>
      <point x="853" y="856"/>
      <point x="853" y="708" type="qcurve" smooth="yes"/>
      <point x="853" y="702" type="line"/>
      <point x="851" y="698" type="line"/>
      <point x="718" y="698" type="line"/>
      <point x="718" y="806"/>
      <point x="591" y="931"/>
      <point x="476" y="931" type="qcurve" smooth="yes"/>
      <point x="360" y="931"/>
      <point x="222" y="744"/>
      <point x="222" y="605" type="qcurve" smooth="yes"/>
      <point x="222" y="421" type="line" smooth="yes"/>
      <point x="222" y="281"/>
      <point x="360" y="94"/>
      <point x="476" y="94" type="qcurve" smooth="yes"/>
      <point x="592" y="94"/>
      <point x="718" y="218"/>
      <point x="718" y="328" type="qcurve"/>
    </contour>
  </outline>
</glyph>
<glyph name="D" format="2">
  <advance width="976"/>
  <unicode hex="0044"/>
  <outline>
    <contour>
      <point x="120" y="0" type="line"/>
      <point x="120" y="1025" type="line"/>
      <point x="442" y="1025" type="line" smooth="yes"/>
      <point x="642" y="1025"/>
      <point x="887" y="778"/>
      <point x="887" y="582" type="qcurve" smooth="yes"/>
      <point x="887" y="442" type="line" smooth="yes"/>
      <point x="887" y="246"/>
      <point x="642" y="0"/>
      <point x="442" y="0" type="qcurve" smooth="yes"/>
    </contour>
    <contour>
      <point x="258" y="916" type="line"/>
      <point x="258" y="108" type="line"/>
      <point x="442" y="108" type="line" smooth="yes"/>
      <point x="584" y="108"/>
      <point x="748" y="296"/>
      <point x="748" y="442" type="qcurve" smooth="yes"/>
      <point x="748" y="583" type="line" smooth="yes"/>
      <point x="748" y="730"/>
      <point x="584" y="916"/>
      <point x="442" y="916" type="qcurve" smooth="yes"/>
    </contour>
  </outline>
</glyph>
<glyph name="E" format="2">
  <advance width="794"/>
  <unicode hex="0045"/>
  <outline>
    <contour>
      <point x="679" y="475" type="line"/>
      <point x="258" y="475" type="line"/>
      <point x="258" y="108" type="line"/>
      <point x="751" y="108" type="line"/>
      <point x="751" y="0" type="line"/>
      <point x="120" y="0" type="line"/>
      <point x="120" y="1025" type="line"/>
      <point x="744" y="1025" type="line"/>
      <point x="744" y="916" type="line"/>
      <point x="258" y="916" type="line"/>
      <point x="258" y="584" type="line"/>
      <point x="679" y="584" type="line"/>
    </contour>
  </outline>
</glyph>
<glyph name="F" format="2">
  <advance width="794"/>
  <unicode hex="0046"/>
  <outline>
    <contour>
      <point x="691" y="453" type="line"/>
      <point x="258" y="453" type="line"/>
      <point x="258" y="0" type="line"/>
      <point x="120" y="0" type="line"/>
      <point x="120" y="1025" type="line"/>
      <point x="762" y="1025" type="line"/>
      <point x="762" y="916" type="line"/>
      <point x="258" y="916" type="line"/>
      <point x="258" y="562" type="line"/>
      <point x="691" y="562" type="line"/>
    </contour>
  </outline>
</glyph>
<glyph name="G" format="2">
  <advance width="976"/>
  <unicode hex="0047"/>
  <outline>
    <contour>
      <point x="857" y="138" type="line"/>
      <point x="820" y="81"/>
      <point x="639" y="-15"/>
      <point x="494" y="-15" type="qcurve" smooth="yes"/>
      <point x="318" y="-15"/>
      <point x="86" y="220"/>
      <point x="86" y="406" type="qcurve" smooth="yes"/>
      <point x="86" y="618" type="line" smooth="yes"/>
      <point x="86" y="804"/>
      <point x="309" y="1040"/>
      <point x="486" y="1040" type="qcurve" smooth="yes"/>
      <point x="657" y="1040"/>
      <point x="756" y="949" type="qcurve" smooth="yes"/>
      <point x="853" y="859"/>
      <point x="853" y="722" type="qcurve" smooth="yes"/>
      <point x="853" y="716" type="line"/>
      <point x="851" y="713" type="line"/>
      <point x="718" y="713" type="line"/>
      <point x="718" y="806"/>
      <point x="597" y="931"/>
      <point x="486" y="931" type="qcurve" smooth="yes"/>
      <point x="368" y="931"/>
      <point x="224" y="755"/>
      <point x="224" y="619" type="qcurve" smooth="yes"/>
      <point x="224" y="406" type="line" smooth="yes"/>
      <point x="224" y="270"/>
      <point x="377" y="94"/>
      <point x="494" y="94" type="qcurve" smooth="yes"/>
      <point x="586" y="94"/>
      <point x="692" y="141"/>
      <point x="718" y="174" type="qcurve"/>
      <point x="718" y="404" type="line"/>
      <point x="486" y="404" type="line"/>
      <point x="486" y="512" type="line"/>
      <point x="857" y="512" type="line"/>
    </contour>
  </outline>
</glyph>
<glyph name="H" format="2">
  <advance width="1014"/>
  <unicode hex="0048"/>
  <outline>
    <contour>
      <point x="895" y="0" type="line"/>
      <point x="756" y="0" type="line"/>
      <point x="756" y="452" type="line"/>
      <point x="258" y="452" type="line"/>
      <point x="258" y="0" type="line"/>
      <point x="120" y="0" type="line"/>
      <point x="120" y="1025" type="line"/>
      <point x="258" y="1025" type="line"/>
      <point x="258" y="562" type="line"/>
      <point x="756" y="562" type="line"/>
      <point x="756" y="1025" type="line"/>
      <point x="895" y="1025" type="line"/>
    </contour>
  </outline>
</glyph>
<glyph name="J" format="2">
  <advance width="790"/>
  <unicode hex="004A"/>
  <outline>
    <contour>
      <point x="534" y="1025" type="line"/>
      <point x="674" y="1025" type="line"/>
      <point x="674" y="298" type="line" smooth="yes"/>
      <point x="674" y="154"/>
      <point x="499" y="-15"/>
      <point x="361" y="-15" type="qcurve" smooth="yes"/>
      <point x="219" y="-15"/>
      <point x="136" y="60" type="qcurve" smooth="yes"/>
      <point x="55" y="132"/>
      <point x="55" y="268" type="qcurve" smooth="yes"/>
      <point x="55" y="278" type="line"/>
      <point x="57" y="282" type="line"/>
      <point x="190" y="282" type="line"/>
      <point x="190" y="186"/>
      <point x="279" y="94"/>
      <point x="361" y="94" type="qcurve" smooth="yes"/>
      <point x="438" y="94"/>
      <point x="534" y="205"/>
      <point x="534" y="298" type="qcurve" smooth="yes"/>
    </contour>
  </outline>
</glyph>
<glyph name="K" format="2">
  <advance width="916"/>
  <unicode hex="004B"/>
  <outline>
    <contour>
      <point x="349" y="463" type="line"/>
      <point x="258" y="463" type="line"/>
      <point x="258" y="0" type="line"/>
      <point x="120" y="0" type="line"/>
      <point x="120" y="1025" type="line"/>
      <point x="258" y="1025" type="line"/>
      <point x="258" y="572" type="line"/>
      <point x="334" y="572" type="line"/>
      <point x="714" y="1025" type="line"/>
      <point x="871" y="1025" type="line"/>
      <point x="872" y="1022" type="line"/>
      <point x="457" y="537" type="line"/>
      <point x="902" y="3" type="line"/>
      <point x="900" y="0" type="line"/>
      <point x="732" y="0" type="line"/>
    </contour>
  </outline>
</glyph>
<glyph name="L" format="2">
  <advance width="792"/>
  <unicode hex="004C"/>
  <outline>
    <contour>
      <point x="258" y="108" type="line"/>
      <point x="758" y="108" type="line"/>
      <point x="758" y="0" type="line"/>
      <point x="120" y="0" type="line"/>
      <point x="120" y="1025" type="line"/>
      <point x="258" y="1025" type="line"/>
    </contour>
  </outline>
</glyph>
<glyph name="M" format="2">
  <advance width="1251"/>
  <unicode hex="004D"/>
  <outline>
    <contour>
      <point x="628" y="192" type="line"/>
      <point x="632" y="192" type="line"/>
      <point x="959" y="1025" type="line"/>
      <point x="1132" y="1025" type="line"/>
      <point x="1132" y="0" type="line"/>
      <point x="994" y="0" type="line"/>
      <point x="994" y="768" type="line"/>
      <point x="989" y="769" type="line"/>
      <point x="678" y="0" type="line"/>
      <point x="582" y="0" type="line"/>
      <point x="262" y="794" type="line"/>
      <point x="258" y="794" type="line"/>
      <point x="258" y="0" type="line"/>
      <point x="120" y="0" type="line"/>
      <point x="120" y="1025" type="line"/>
      <point x="302" y="1025" type="line"/>
    </contour>
  </outline>
</glyph>
<glyph name="N" format="2">
  <advance width="1014"/>
  <unicode hex="004E"/>
  <outline>
    <contour>
      <point x="895" y="0" type="line"/>
      <point x="756" y="0" type="line"/>
      <point x="262" y="783" type="line"/>
      <point x="258" y="782" type="line"/>
      <point x="258" y="0" type="line"/>
      <point x="120" y="0" type="line"/>
      <point x="120" y="1025" type="line"/>
      <point x="258" y="1025" type="line"/>
      <point x="751" y="243" type="line"/>
      <point x="756" y="245" type="line"/>
      <point x="756" y="1025" type="line"/>
      <point x="895" y="1025" type="line"/>
    </contour>
  </outline>
</glyph>
<glyph name="O" format="2">
  <advance width="983"/>
  <unicode hex="004F"/>
  <outline>
    <contour>
      <point x="903" y="421" type="line" smooth="yes"/>
      <point x="903" y="234"/>
      <point x="670" y="-15"/>
      <point x="484" y="-15" type="qcurve" smooth="yes"/>
      <point x="305" y="-15"/>
      <point x="79" y="233"/>
      <point x="79" y="421" type="qcurve" smooth="yes"/>
      <point x="79" y="604" type="line" smooth="yes"/>
      <point x="79" y="790"/>
      <point x="305" y="1040"/>
      <point x="484" y="1040" type="qcurve" smooth="yes"/>
      <point x="670" y="1040"/>
      <point x="903" y="791"/>
      <point x="903" y="604" type="qcurve" smooth="yes"/>
    </contour>
    <contour>
      <point x="764" y="605" type="line" smooth="yes"/>
      <point x="764" y="746"/>
      <point x="612" y="926"/>
      <point x="484" y="926" type="qcurve" smooth="yes"/>
      <point x="362" y="926"/>
      <point x="218" y="746"/>
      <point x="218" y="605" type="qcurve" smooth="yes"/>
      <point x="218" y="421" type="line" smooth="yes"/>
      <point x="218" y="279"/>
      <point x="362" y="98"/>
      <point x="484" y="98" type="qcurve" smooth="yes"/>
      <point x="613" y="98"/>
      <point x="764" y="278"/>
      <point x="764" y="421" type="qcurve" smooth="yes"/>
    </contour>
  </outline>
</glyph>
<glyph name="P" format="2">
  <advance width="916"/>
  <unicode hex="0050"/>
  <outline>
    <contour>
      <point x="258" y="411" type="line"/>
      <point x="258" y="0" type="line"/>
      <point x="120" y="0" type="line"/>
      <point x="120" y="1025" type="line"/>
      <point x="512" y="1025" type="line" smooth="yes"/>
      <point x="676" y="1025"/>
      <point x="858" y="856"/>
      <point x="858" y="718" type="qcurve" smooth="yes"/>
      <point x="858" y="579"/>
      <point x="676" y="411"/>
      <point x="512" y="411" type="qcurve" smooth="yes"/>
    </contour>
    <contour>
      <point x="258" y="519" type="line"/>
      <point x="512" y="519" type="line" smooth="yes"/>
      <point x="616" y="519"/>
      <point x="719" y="632"/>
      <point x="719" y="716" type="qcurve" smooth="yes"/>
      <point x="719" y="802"/>
      <point x="615" y="916"/>
      <point x="512" y="916" type="qcurve" smooth="yes"/>
      <point x="258" y="916" type="line"/>
    </contour>
  </outline>
</glyph>
<glyph name="Q" format="2">
  <advance width="1004"/>
  <unicode hex="0051"/>
  <outline>
    <contour>
      <point x="903" y="421" type="line" smooth="yes"/>
      <point x="903" y="341"/>
      <point x="855" y="195"/>
      <point x="811" y="139" type="qcurve"/>
      <point x="965" y="-10" type="line"/>
      <point x="870" y="-100" type="line"/>
      <point x="713" y="50" type="line"/>
      <point x="665" y="17"/>
      <point x="548" y="-15"/>
      <point x="484" y="-15" type="qcurve" smooth="yes"/>
      <point x="305" y="-15"/>
      <point x="79" y="233"/>
      <point x="79" y="421" type="qcurve" smooth="yes"/>
      <point x="79" y="604" type="line" smooth="yes"/>
      <point x="79" y="790"/>
      <point x="305" y="1040"/>
      <point x="484" y="1040" type="qcurve" smooth="yes"/>
      <point x="670" y="1040"/>
      <point x="903" y="791"/>
      <point x="903" y="604" type="qcurve" smooth="yes"/>
    </contour>
    <contour>
      <point x="764" y="605" type="line" smooth="yes"/>
      <point x="764" y="746"/>
      <point x="612" y="926"/>
      <point x="484" y="926" type="qcurve" smooth="yes"/>
      <point x="362" y="926"/>
      <point x="218" y="746"/>
      <point x="218" y="605" type="qcurve" smooth="yes"/>
      <point x="218" y="421" type="line" smooth="yes"/>
      <point x="218" y="279"/>
      <point x="362" y="98"/>
      <point x="484" y="98" type="qcurve" smooth="yes"/>
      <point x="613" y="98"/>
      <point x="764" y="278"/>
      <point x="764" y="421" type="qcurve" smooth="yes"/>
    </contour>
  </outline>
</glyph>
<glyph name="R" format="2">
  <advance width="917"/>
  <unicode hex="0052"/>
  <outline>
    <contour>
      <point x="258" y="444" type="line"/>
      <point x="258" y="0" type="line"/>
      <point x="120" y="0" type="line"/>
      <point x="120" y="1024" type="line"/>
      <point x="470" y="1024" type="line" smooth="yes"/>
      <point x="639" y="1024"/>
      <point x="816" y="874"/>
      <point x="816" y="733" type="qcurve" smooth="yes"/>
      <point x="816" y="654"/>
      <point x="734" y="537"/>
      <point x="654" y="502" type="qcurve"/>
      <point x="739" y="475"/>
      <point x="813" y="352"/>
      <point x="813" y="262" type="qcurve" smooth="yes"/>
      <point x="813" y="165" type="line" smooth="yes"/>
      <point x="813" y="116"/>
      <point x="834" y="41"/>
      <point x="861" y="17" type="qcurve"/>
      <point x="861" y="0" type="line"/>
      <point x="718" y="0" type="line"/>
      <point x="690" y="24"/>
      <point x="674" y="117"/>
      <point x="674" y="166" type="qcurve" smooth="yes"/>
      <point x="674" y="259" type="line" smooth="yes"/>
      <point x="674" y="343"/>
      <point x="578" y="444"/>
      <point x="495" y="444" type="qcurve" smooth="yes"/>
    </contour>
    <contour>
      <point x="258" y="554" type="line"/>
      <point x="456" y="554" type="line" smooth="yes"/>
      <point x="574" y="554"/>
      <point x="678" y="642"/>
      <point x="678" y="734" type="qcurve" smooth="yes"/>
      <point x="678" y="821"/>
      <point x="577" y="916"/>
      <point x="470" y="916" type="qcurve" smooth="yes"/>
      <point x="258" y="916" type="line"/>
    </contour>
  </outline>
</glyph>
<glyph name="S" format="2">
  <advance width="882"/>
  <unicode hex="0053"/>
  <outline>
    <contour>
      <point x="666" y="258" type="qcurve" smooth="yes"/>
      <point x="666" y="328"/>
      <point x="566" y="422"/>
      <point x="440" y="456" type="qcurve" smooth="yes"/>
      <point x="283" y="494"/>
      <point x="108" y="645"/>
      <point x="108" y="758" type="qcurve" smooth="yes"/>
      <point x="108" y="878"/>
      <point x="298" y="1040"/>
      <point x="448" y="1040" type="qcurve" smooth="yes"/>
      <point x="610" y="1040"/>
      <point x="706" y="948" type="qcurve" smooth="yes"/>
      <point x="799" y="859"/>
      <point x="799" y="741" type="qcurve" smooth="yes"/>
      <point x="799" y="734" type="line"/>
      <point x="798" y="730" type="line"/>
      <point x="665" y="730" type="line"/>
      <point x="665" y="817"/>
      <point x="543" y="931"/>
      <point x="448" y="931" type="qcurve" smooth="yes"/>
      <point x="350" y="931"/>
      <point x="247" y="836"/>
      <point x="247" y="762" type="qcurve" smooth="yes"/>
      <point x="247" y="694"/>
      <point x="361" y="605"/>
      <point x="487" y="571" type="qcurve" smooth="yes"/>
      <point x="642" y="530"/>
      <point x="804" y="375"/>
      <point x="804" y="259" type="qcurve" smooth="yes"/>
      <point x="804" y="135"/>
      <point x="610" y="-15"/>
      <point x="452" y="-15" type="qcurve" smooth="yes"/>
      <point x="305" y="-15"/>
      <point x="191" y="68" type="qcurve" smooth="yes"/>
      <point x="80" y="149"/>
      <point x="80" y="283" type="qcurve" smooth="yes"/>
      <point x="80" y="290" type="line"/>
      <point x="82" y="295" type="line"/>
      <point x="214" y="295" type="line"/>
      <point x="214" y="199"/>
      <point x="361" y="94"/>
      <point x="452" y="94" type="qcurve" smooth="yes"/>
      <point x="551" y="94"/>
      <point x="666" y="182"/>
    </contour>
  </outline>
</glyph>
<glyph name="T" format="2">
  <advance width="862"/>
  <unicode hex="0054"/>
  <outline>
    <contour>
      <point x="836" y="916" type="line"/>
      <point x="498" y="916" type="line"/>
      <point x="498" y="0" type="line"/>
      <point x="360" y="0" type="line"/>
      <point x="360" y="916" type="line"/>
      <point x="26" y="916" type="line"/>
      <point x="26" y="1025" type="line"/>
      <point x="836" y="1025" type="line"/>
    </contour>
  </outline>
</glyph>
<glyph name="U" format="2">
  <advance width="975"/>
  <unicode hex="0055"/>
  <outline>
    <contour>
      <point x="875" y="1025" type="line"/>
      <point x="875" y="344" type="line" smooth="yes"/>
      <point x="875" y="175"/>
      <point x="657" y="-15"/>
      <point x="483" y="-15" type="qcurve" smooth="yes"/>
      <point x="316" y="-15"/>
      <point x="104" y="176"/>
      <point x="104" y="344" type="qcurve" smooth="yes"/>
      <point x="104" y="1025" type="line"/>
      <point x="242" y="1025" type="line"/>
      <point x="242" y="344" type="line" smooth="yes"/>
      <point x="242" y="227"/>
      <point x="377" y="94"/>
      <point x="483" y="94" type="qcurve" smooth="yes"/>
      <point x="596" y="94"/>
      <point x="738" y="227"/>
      <point x="738" y="344" type="qcurve" smooth="yes"/>
      <point x="738" y="1025" type="line"/>
    </contour>
  </outline>
</glyph>
<glyph name="V" format="2">
  <advance width="912"/>
  <unicode hex="0056"/>
  <outline>
    <contour>
      <point x="431" y="270" type="line"/>
      <point x="454" y="184" type="line"/>
      <point x="458" y="184" type="line"/>
      <point x="482" y="270" type="line"/>
      <point x="746" y="1025" type="line"/>
      <point x="896" y="1025" type="line"/>
      <point x="516" y="0" type="line"/>
      <point x="396" y="0" type="line"/>
      <point x="16" y="1025" type="line"/>
      <point x="166" y="1025" type="line"/>
    </contour>
  </outline>
</glyph>
<glyph name="W" format="2">
  <advance width="1241"/>
  <unicode hex="0057"/>
  <outline>
    <contour>
      <point x="326" y="355" type="line"/>
      <point x="343" y="221" type="line"/>
      <point x="346" y="220" type="line"/>
      <point x="371" y="355" type="line"/>
      <point x="553" y="1025" type="line"/>
      <point x="688" y="1025" type="line"/>
      <point x="871" y="355" type="line"/>
      <point x="896" y="218" type="line"/>
      <point x="899" y="218" type="line"/>
      <point x="918" y="355" type="line"/>
      <point x="1065" y="1025" type="line"/>
      <point x="1216" y="1025" type="line"/>
      <point x="968" y="0" type="line"/>
      <point x="844" y="0" type="line"/>
      <point x="639" y="711" type="line"/>
      <point x="624" y="803" type="line"/>
      <point x="619" y="803" type="line"/>
      <point x="605" y="711" type="line"/>
      <point x="397" y="0" type="line"/>
      <point x="273" y="0" type="line"/>
      <point x="26" y="1025" type="line"/>
      <point x="176" y="1025" type="line"/>
    </contour>
  </outline>
</glyph>
<glyph name="X" format="2">
  <advance width="912"/>
  <unicode hex="0058"/>
  <outline>
    <contour>
      <point x="458" y="625" type="line"/>
      <point x="697" y="1025" type="line"/>
      <point x="864" y="1025" type="line"/>
      <point x="539" y="517" type="line"/>
      <point x="871" y="0" type="line"/>
      <point x="706" y="0" type="line"/>
      <point x="460" y="406" type="line"/>
      <point x="214" y="0" type="line"/>
      <point x="46" y="0" type="line"/>
      <point x="378" y="517" type="line"/>
      <point x="54" y="1025" type="line"/>
      <point x="220" y="1025" type="line"/>
    </contour>
  </outline>
</glyph>
<glyph name="Y" format="2">
  <advance width="912"/>
  <unicode hex="0059"/>
  <outline>
    <contour>
      <point x="454" y="504" type="line"/>
      <point x="722" y="1025" type="line"/>
      <point x="880" y="1025" type="line"/>
      <point x="520" y="361" type="line"/>
      <point x="520" y="0" type="line"/>
      <point x="382" y="0" type="line"/>
      <point x="382" y="371" type="line"/>
      <point x="28" y="1025" type="line"/>
      <point x="186" y="1025" type="line"/>
    </contour>
  </outline>
</glyph>
<glyph name="Z" format="2">
  <advance width="862"/>
  <unicode hex="005A"/>
  <outline>
    <contour>
      <point x="224" y="108" type="line"/>
      <point x="798" y="108" type="line"/>
      <point x="798" y="0" type="line"/>
      <point x="69" y="0" type="line"/>
      <point x="69" y="103" type="line"/>
      <point x="616" y="916" type="line"/>
      <point x="76" y="916" type="line"/>
      <point x="76" y="1025" type="line"/>
      <point x="774" y="1025" type="line"/>
      <point x="774" y="926" type="line"/>
    </contour>
  </outline>
</glyph>
<glyph name="bracketleft" format="2">
  <advance width="388"/>
  <unicode hex="005B"/>
  <outline>
    <contour>
      <point x="371" y="1062" type="line"/>
      <point x="239" y="1062" type="line"/>
      <point x="239" y="-111" type="line"/>
      <point x="371" y="-111" type="line"/>
      <point x="371" y="-220" type="line"/>
      <point x="100" y="-220" type="line"/>
      <point x="100" y="1171" type="line"/>
      <point x="371" y="1171" type="line"/>
    </contour>
  </outline>
</glyph>
<glyph name="backslash" format="2">
  <advance width="596"/>
  <unicode hex="005C"/>
  <outline>
    <contour>
      <point x="27" y="1025" type="line"/>
      <point x="158" y="1025" type="line"/>
      <point x="586" y="-88" type="line"/>
      <point x="456" y="-88" type="line"/>
    </contour>
  </outline>
</glyph>
<glyph name="bracketright" format="2">
  <advance width="388"/>
  <unicode hex="005D"/>
  <outline>
    <contour>
      <point x="8" y="1171" type="line"/>
      <point x="280" y="1171" type="line"/>
      <point x="280" y="-220" type="line"/>
      <point x="8" y="-220" type="line"/>
      <point x="8" y="-111" type="line"/>
      <point x="141" y="-111" type="line"/>
      <point x="141" y="1062" type="line"/>
      <point x="8" y="1062" type="line"/>
    </contour>
  </outline>
</glyph>
<glyph name="asciicircum" format="2">
  <advance width="602"/>
  <unicode hex="005E"/>
  <outline>
    <contour>
      <point x="172" y="513" type="line"/>
      <point x="43" y="513" type="line"/>
      <point x="254" y="1025" type="line"/>
      <point x="348" y="1025" type="line"/>
      <point x="558" y="513" type="line"/>
      <point x="430" y="513" type="line"/>
      <point x="314" y="808" type="line"/>
      <point x="302" y="857" type="line"/>
      <point x="298" y="857" type="line"/>
      <point x="287" y="808" type="line"/>
    </contour>
  </outline>
</glyph>
<glyph name="underscore" format="2">
  <advance width="654"/>
  <unicode hex="005F"/>
  <outline>
    <contour>
      <point x="653" y="-108" type="line"/>
      <point x="2" y="-108" type="line"/>
      <point x="2" y="0" type="line"/>
      <point x="653" y="0" type="line"/>
    </contour>
  </outline>
</glyph>
<glyph name="grave" format="2">
  <advance width="451"/>
  <unicode hex="0060"/>
  <outline>
    <contour>
      <point x="345" y="882" type="line"/>
      <point x="234" y="882" type="line"/>
      <point x="58" y="1065" type="line"/>
      <point x="60" y="1068" type="line"/>
      <point x="222" y="1068" type="line"/>
    </contour>
  </outline>
</glyph>
<glyph name="a" format="2">
  <advance width="792"/>
  <unicode hex="0061"/>
  <outline>
    <contour>
      <point x="569" y="0" type="line"/>
      <point x="562" y="34"/>
      <point x="554" y="87"/>
      <point x="554" y="114" type="qcurve"/>
      <point x="514" y="59"/>
      <point x="390" y="-15"/>
      <point x="318" y="-15" type="qcurve" smooth="yes"/>
      <point x="199" y="-15"/>
      <point x="75" y="107"/>
      <point x="75" y="214" type="qcurve" smooth="yes"/>
      <point x="75" y="323"/>
      <point x="252" y="446"/>
      <point x="403" y="446" type="qcurve" smooth="yes"/>
      <point x="554" y="446" type="line"/>
      <point x="554" y="522" type="line" smooth="yes"/>
      <point x="554" y="588"/>
      <point x="472" y="667"/>
      <point x="397" y="667" type="qcurve" smooth="yes"/>
      <point x="329" y="667"/>
      <point x="246" y="599"/>
      <point x="246" y="552" type="qcurve"/>
      <point x="114" y="551" type="line"/>
      <point x="114" y="565" type="line" smooth="yes"/>
      <point x="114" y="643"/>
      <point x="274" y="776"/>
      <point x="405" y="776" type="qcurve" smooth="yes"/>
      <point x="535" y="776"/>
      <point x="692" y="644"/>
      <point x="692" y="520" type="qcurve" smooth="yes"/>
      <point x="692" y="153" type="line" smooth="yes"/>
      <point x="692" y="113"/>
      <point x="701" y="37"/>
      <point x="712" y="0" type="qcurve"/>
    </contour>
    <contour>
      <point x="339" y="102" type="qcurve" smooth="yes"/>
      <point x="414" y="102"/>
      <point x="535" y="178"/>
      <point x="554" y="229" type="qcurve"/>
      <point x="554" y="353" type="line"/>
      <point x="398" y="353" type="line" smooth="yes"/>
      <point x="314" y="353"/>
      <point x="213" y="268"/>
      <point x="213" y="211" type="qcurve" smooth="yes"/>
      <point x="213" y="161"/>
      <point x="276" y="102"/>
    </contour>
  </outline>
</glyph>
<glyph name="b" format="2">
  <advance width="818"/>
  <unicode hex="0062"/>
  <outline>
    <contour>
      <point x="751" y="352" type="line" smooth="yes"/>
      <point x="751" y="188"/>
      <point x="593" y="-15"/>
      <point x="454" y="-15" type="qcurve" smooth="yes"/>
      <point x="378" y="-15"/>
      <point x="266" y="45"/>
      <point x="230" y="104" type="qcurve"/>
      <point x="206" y="0" type="line"/>
      <point x="100" y="0" type="line"/>
      <point x="100" y="1098" type="line"/>
      <point x="239" y="1098" type="line"/>
      <point x="239" y="671" type="line"/>
      <point x="275" y="722"/>
      <point x="382" y="776"/>
      <point x="452" y="776" type="qcurve" smooth="yes"/>
      <point x="593" y="776"/>
      <point x="751" y="551"/>
      <point x="751" y="367" type="qcurve" smooth="yes"/>
    </contour>
    <contour>
      <point x="613" y="367" type="line" smooth="yes"/>
      <point x="613" y="498"/>
      <point x="516" y="663"/>
      <point x="417" y="663" type="qcurve" smooth="yes"/>
      <point x="354" y="663"/>
      <point x="266" y="600"/>
      <point x="239" y="547" type="qcurve"/>
      <point x="239" y="218" type="line"/>
      <point x="266" y="161"/>
      <point x="353" y="98"/>
      <point x="419" y="98" type="qcurve" smooth="yes"/>
      <point x="517" y="98"/>
      <point x="613" y="238"/>
      <point x="613" y="352" type="qcurve" smooth="yes"/>
    </contour>
  </outline>
</glyph>
<glyph name="c" format="2">
  <advance width="754"/>
  <unicode hex="0063"/>
  <outline>
    <contour>
      <point x="403" y="94" type="qcurve" smooth="yes"/>
      <point x="467" y="94"/>
      <point x="563" y="178"/>
      <point x="563" y="241" type="qcurve"/>
      <point x="688" y="241" type="line"/>
      <point x="691" y="237" type="line"/>
      <point x="691" y="230" type="line" smooth="yes"/>
      <point x="691" y="135"/>
      <point x="519" y="-15"/>
      <point x="403" y="-15" type="qcurve" smooth="yes"/>
      <point x="244" y="-15"/>
      <point x="69" y="203"/>
      <point x="69" y="366" type="qcurve" smooth="yes"/>
      <point x="69" y="396" type="line" smooth="yes"/>
      <point x="69" y="556"/>
      <point x="244" y="776"/>
      <point x="403" y="776" type="qcurve" smooth="yes"/>
      <point x="530" y="776"/>
      <point x="612" y="697" type="qcurve" smooth="yes"/>
      <point x="691" y="621"/>
      <point x="691" y="511" type="qcurve" smooth="yes"/>
      <point x="691" y="503" type="line"/>
      <point x="689" y="499" type="line"/>
      <point x="563" y="499" type="line"/>
      <point x="563" y="569"/>
      <point x="473" y="667"/>
      <point x="403" y="667" type="qcurve" smooth="yes"/>
      <point x="301" y="667"/>
      <point x="208" y="509"/>
      <point x="208" y="396" type="qcurve" smooth="yes"/>
      <point x="208" y="366" type="line" smooth="yes"/>
      <point x="208" y="252"/>
      <point x="300" y="94"/>
    </contour>
  </outline>
</glyph>
<glyph name="d" format="2">
  <advance width="818"/>
  <unicode hex="0064"/>
  <outline>
    <contour>
      <point x="69" y="367" type="line" smooth="yes"/>
      <point x="69" y="551"/>
      <point x="226" y="776"/>
      <point x="368" y="776" type="qcurve" smooth="yes"/>
      <point x="434" y="776"/>
      <point x="538" y="727"/>
      <point x="574" y="679" type="qcurve"/>
      <point x="574" y="1098" type="line"/>
      <point x="713" y="1098" type="line"/>
      <point x="713" y="0" type="line"/>
      <point x="607" y="0" type="line"/>
      <point x="586" y="97" type="line"/>
      <point x="549" y="42"/>
      <point x="438" y="-15"/>
      <point x="366" y="-15" type="qcurve" smooth="yes"/>
      <point x="227" y="-15"/>
      <point x="69" y="187"/>
      <point x="69" y="352" type="qcurve" smooth="yes"/>
    </contour>
    <contour>
      <point x="208" y="352" type="line" smooth="yes"/>
      <point x="208" y="237"/>
      <point x="302" y="98"/>
      <point x="402" y="98" type="qcurve" smooth="yes"/>
      <point x="463" y="98"/>
      <point x="547" y="154"/>
      <point x="574" y="205" type="qcurve"/>
      <point x="574" y="561" type="line"/>
      <point x="548" y="608"/>
      <point x="463" y="663"/>
      <point x="403" y="663" type="qcurve" smooth="yes"/>
      <point x="302" y="663"/>
      <point x="208" y="498"/>
      <point x="208" y="367" type="qcurve" smooth="yes"/>
    </contour>
  </outline>
</glyph>
<glyph name="e" format="2">
  <advance width="754"/>
  <unicode hex="0065"/>
  <outline>
    <contour>
      <point x="416" y="-15" type="qcurve" smooth="yes"/>
      <point x="252" y="-15"/>
      <point x="69" y="195"/>
      <point x="69" y="366" type="qcurve" smooth="yes"/>
      <point x="69" y="397" type="line" smooth="yes"/>
      <point x="69" y="561"/>
      <point x="258" y="776"/>
      <point x="394" y="776" type="qcurve" smooth="yes"/>
      <point x="547" y="776"/>
      <point x="700" y="586"/>
      <point x="700" y="428" type="qcurve" smooth="yes"/>
      <point x="700" y="354" type="line"/>
      <point x="213" y="354" type="line"/>
      <point x="210" y="351" type="line"/>
      <point x="210" y="237"/>
      <point x="311" y="94"/>
      <point x="416" y="94" type="qcurve" smooth="yes"/>
      <point x="486" y="94"/>
      <point x="593" y="134"/>
      <point x="631" y="169" type="qcurve"/>
      <point x="685" y="79" type="line"/>
      <point x="644" y="40"/>
      <point x="510" y="-15"/>
    </contour>
    <contour>
      <point x="394" y="667" type="qcurve" smooth="yes"/>
      <point x="322" y="667"/>
      <point x="227" y="554"/>
      <point x="217" y="467" type="qcurve"/>
      <point x="218" y="464" type="line"/>
      <point x="562" y="464" type="line"/>
      <point x="562" y="475" type="line" smooth="yes"/>
      <point x="562" y="558"/>
      <point x="481" y="667"/>
    </contour>
  </outline>
</glyph>
<glyph name="f" format="2">
  <advance width="474"/>
  <unicode hex="0066"/>
  <outline>
    <contour>
      <point x="158" y="0" type="line"/>
      <point x="158" y="659" type="line"/>
      <point x="40" y="659" type="line"/>
      <point x="40" y="762" type="line"/>
      <point x="158" y="762" type="line"/>
      <point x="158" y="858" type="line" smooth="yes"/>
      <point x="158" y="980"/>
      <point x="286" y="1113"/>
      <point x="399" y="1113" type="qcurve" smooth="yes"/>
      <point x="424" y="1113"/>
      <point x="473" y="1106"/>
      <point x="502" y="1098" type="qcurve"/>
      <point x="485" y="993" type="line"/>
      <point x="473" y="995"/>
      <point x="437" y="1000"/>
      <point x="417" y="1000" type="qcurve" smooth="yes"/>
      <point x="357" y="1000"/>
      <point x="298" y="927"/>
      <point x="298" y="858" type="qcurve" smooth="yes"/>
      <point x="298" y="762" type="line"/>
      <point x="434" y="762" type="line"/>
      <point x="434" y="659" type="line"/>
      <point x="298" y="659" type="line"/>
      <point x="298" y="0" type="line"/>
    </contour>
  </outline>
</glyph>
<glyph name="g" format="2">
  <advance width="818"/>
  <unicode hex="0067"/>
  <outline>
    <contour>
      <point x="76" y="367" type="line" smooth="yes"/>
      <point x="76" y="551"/>
      <point x="233" y="776"/>
      <point x="374" y="776" type="qcurve" smooth="yes"/>
      <point x="446" y="776"/>
      <point x="556" y="718"/>
      <point x="593" y="662" type="qcurve"/>
      <point x="610" y="762" type="line"/>
      <point x="721" y="762" type="line"/>
      <point x="721" y="-5" type="line" smooth="yes"/>
      <point x="721" y="-150"/>
      <point x="551" y="-308"/>
      <point x="390" y="-308" type="qcurve" smooth="yes"/>
      <point x="335" y="-308"/>
      <point x="208" y="-278"/>
      <point x="159" y="-252" type="qcurve"/>
      <point x="181" y="-143" type="line"/>
      <point x="220" y="-165"/>
      <point x="334" y="-191"/>
      <point x="389" y="-191" type="qcurve" smooth="yes"/>
      <point x="490" y="-191"/>
      <point x="582" y="-98"/>
      <point x="582" y="-5" type="qcurve" smooth="yes"/>
      <point x="582" y="82" type="line"/>
      <point x="545" y="34"/>
      <point x="441" y="-15"/>
      <point x="372" y="-15" type="qcurve" smooth="yes"/>
      <point x="233" y="-15"/>
      <point x="76" y="187"/>
      <point x="76" y="352" type="qcurve" smooth="yes"/>
    </contour>
    <contour>
      <point x="214" y="352" type="line" smooth="yes"/>
      <point x="214" y="238"/>
      <point x="309" y="98"/>
      <point x="407" y="98" type="qcurve" smooth="yes"/>
      <point x="470" y="98"/>
      <point x="554" y="155"/>
      <point x="582" y="206" type="qcurve"/>
      <point x="582" y="558" type="line"/>
      <point x="555" y="606"/>
      <point x="470" y="663"/>
      <point x="410" y="663" type="qcurve" smooth="yes"/>
      <point x="309" y="663"/>
      <point x="214" y="498"/>
      <point x="214" y="367" type="qcurve" smooth="yes"/>
    </contour>
  </outline>
</glyph>
<glyph name="h" format="2">
  <advance width="818"/>
  <unicode hex="0068"/>
  <outline>
    <contour>
      <point x="239" y="660" type="line"/>
      <point x="279" y="714"/>
      <point x="394" y="776"/>
      <point x="463" y="776" type="qcurve" smooth="yes"/>
      <point x="586" y="776"/>
      <point x="721" y="630"/>
      <point x="721" y="477" type="qcurve" smooth="yes"/>
      <point x="721" y="0" type="line"/>
      <point x="582" y="0" type="line"/>
      <point x="582" y="478" type="line" smooth="yes"/>
      <point x="582" y="572"/>
      <point x="502" y="663"/>
      <point x="421" y="663" type="qcurve" smooth="yes"/>
      <point x="359" y="663"/>
      <point x="267" y="614"/>
      <point x="239" y="571" type="qcurve"/>
      <point x="239" y="0" type="line"/>
      <point x="100" y="0" type="line"/>
      <point x="100" y="1098" type="line"/>
      <point x="239" y="1098" type="line"/>
    </contour>
  </outline>
</glyph>
<glyph name="i" format="2">
  <advance width="362"/>
  <unicode hex="0069"/>
  <outline>
    <contour>
      <point x="250" y="0" type="line"/>
      <point x="112" y="0" type="line"/>
      <point x="112" y="762" type="line"/>
      <point x="250" y="762" type="line"/>
    </contour>
    <contour>
      <point x="250" y="957" type="line"/>
      <point x="112" y="957" type="line"/>
      <point x="112" y="1098" type="line"/>
      <point x="250" y="1098" type="line"/>
    </contour>
  </outline>
</glyph>
<glyph name="j" format="2">
  <advance width="373"/>
  <unicode hex="006A"/>
  <outline>
    <contour>
      <point x="261" y="762" type="line"/>
      <point x="261" y="-62" type="line" smooth="yes"/>
      <point x="261" y="-181"/>
      <point x="139" y="-308"/>
      <point x="32" y="-308" type="qcurve" smooth="yes"/>
      <point x="10" y="-308"/>
      <point x="-26" y="-301"/>
      <point x="-46" y="-295" type="qcurve"/>
      <point x="-37" y="-186" type="line"/>
      <point x="-26" y="-190"/>
      <point x="10" y="-194"/>
      <point x="22" y="-194" type="qcurve" smooth="yes"/>
      <point x="68" y="-194"/>
      <point x="122" y="-132"/>
      <point x="122" y="-62" type="qcurve" smooth="yes"/>
      <point x="122" y="762" type="line"/>
    </contour>
    <contour>
      <point x="256" y="959" type="line"/>
      <point x="118" y="959" type="line"/>
      <point x="118" y="1098" type="line"/>
      <point x="256" y="1098" type="line"/>
    </contour>
  </outline>
</glyph>
<glyph name="k" format="2">
  <advance width="738"/>
  <unicode hex="006B"/>
  <outline>
    <contour>
      <point x="311" y="351" type="line"/>
      <point x="240" y="351" type="line"/>
      <point x="240" y="0" type="line"/>
      <point x="102" y="0" type="line"/>
      <point x="102" y="1098" type="line"/>
      <point x="240" y="1098" type="line"/>
      <point x="240" y="462" type="line"/>
      <point x="310" y="462" type="line"/>
      <point x="538" y="762" type="line"/>
      <point x="705" y="762" type="line"/>
      <point x="428" y="410" type="line"/>
      <point x="729" y="0" type="line"/>
      <point x="565" y="0" type="line"/>
    </contour>
  </outline>
</glyph>
<glyph name="l" format="2">
  <advance width="362"/>
  <unicode hex="006C"/>
  <outline>
    <contour>
      <point x="250" y="0" type="line"/>
      <point x="112" y="0" type="line"/>
      <point x="112" y="1098" type="line"/>
      <point x="250" y="1098" type="line"/>
    </contour>
  </outline>
</glyph>
<glyph name="m" format="2">
  <advance width="1260"/>
  <unicode hex="006D"/>
  <outline>
    <contour>
      <point x="224" y="762" type="line"/>
      <point x="234" y="662" type="line"/>
      <point x="272" y="716"/>
      <point x="386" y="776"/>
      <point x="462" y="776" type="qcurve" smooth="yes"/>
      <point x="538" y="776"/>
      <point x="648" y="706"/>
      <point x="675" y="635" type="qcurve"/>
      <point x="711" y="701"/>
      <point x="829" y="776"/>
      <point x="908" y="776" type="qcurve" smooth="yes"/>
      <point x="1024" y="776"/>
      <point x="1160" y="616"/>
      <point x="1160" y="456" type="qcurve" smooth="yes"/>
      <point x="1160" y="0" type="line"/>
      <point x="1021" y="0" type="line"/>
      <point x="1021" y="457" type="line" smooth="yes"/>
      <point x="1021" y="570"/>
      <point x="943" y="663"/>
      <point x="866" y="663" type="qcurve" smooth="yes"/>
      <point x="794" y="663"/>
      <point x="707" y="565"/>
      <point x="700" y="490" type="qcurve"/>
      <point x="700" y="0" type="line"/>
      <point x="561" y="0" type="line"/>
      <point x="561" y="457" type="line" smooth="yes"/>
      <point x="561" y="564"/>
      <point x="481" y="663"/>
      <point x="406" y="663" type="qcurve" smooth="yes"/>
      <point x="343" y="663"/>
      <point x="262" y="610"/>
      <point x="239" y="564" type="qcurve"/>
      <point x="239" y="0" type="line"/>
      <point x="100" y="0" type="line"/>
      <point x="100" y="762" type="line"/>
    </contour>
  </outline>
</glyph>
<glyph name="n" format="2">
  <advance width="818"/>
  <unicode hex="006E"/>
  <outline>
    <contour>
      <point x="224" y="762" type="line"/>
      <point x="234" y="649" type="line"/>
      <point x="273" y="710"/>
      <point x="387" y="776"/>
      <point x="460" y="776" type="qcurve" smooth="yes"/>
      <point x="583" y="776"/>
      <point x="719" y="632"/>
      <point x="719" y="481" type="qcurve" smooth="yes"/>
      <point x="719" y="0" type="line"/>
      <point x="580" y="0" type="line"/>
      <point x="580" y="478" type="line" smooth="yes"/>
      <point x="580" y="579"/>
      <point x="501" y="663"/>
      <point x="419" y="663" type="qcurve" smooth="yes"/>
      <point x="355" y="663"/>
      <point x="266" y="612"/>
      <point x="239" y="565" type="qcurve"/>
      <point x="239" y="0" type="line"/>
      <point x="100" y="0" type="line"/>
      <point x="100" y="762" type="line"/>
    </contour>
  </outline>
</glyph>
<glyph name="o" format="2">
  <advance width="818"/>
  <unicode hex="006F"/>
  <outline>
    <contour>
      <point x="69" y="388" type="line" smooth="yes"/>
      <point x="69" y="557"/>
      <point x="252" y="776"/>
      <point x="408" y="776" type="qcurve" smooth="yes"/>
      <point x="568" y="776"/>
      <point x="750" y="558"/>
      <point x="750" y="388" type="qcurve" smooth="yes"/>
      <point x="750" y="372" type="line" smooth="yes"/>
      <point x="750" y="202"/>
      <point x="568" y="-15"/>
      <point x="410" y="-15" type="qcurve" smooth="yes"/>
      <point x="252" y="-15"/>
      <point x="69" y="202"/>
      <point x="69" y="372" type="qcurve" smooth="yes"/>
    </contour>
    <contour>
      <point x="206" y="372" type="line" smooth="yes"/>
      <point x="206" y="252"/>
      <point x="309" y="94"/>
      <point x="410" y="94" type="qcurve" smooth="yes"/>
      <point x="509" y="94"/>
      <point x="612" y="252"/>
      <point x="612" y="372" type="qcurve" smooth="yes"/>
      <point x="612" y="388" type="line" smooth="yes"/>
      <point x="612" y="508"/>
      <point x="509" y="667"/>
      <point x="408" y="667" type="qcurve" smooth="yes"/>
      <point x="309" y="667"/>
      <point x="206" y="508"/>
      <point x="206" y="388" type="qcurve" smooth="yes"/>
    </contour>
  </outline>
</glyph>
<glyph name="p" format="2">
  <advance width="818"/>
  <unicode hex="0070"/>
  <outline>
    <contour>
      <point x="750" y="352" type="line" smooth="yes"/>
      <point x="750" y="188"/>
      <point x="592" y="-15"/>
      <point x="453" y="-15" type="qcurve" smooth="yes"/>
      <point x="383" y="-15"/>
      <point x="276" y="33"/>
      <point x="239" y="79" type="qcurve"/>
      <point x="239" y="-293" type="line"/>
      <point x="100" y="-293" type="line"/>
      <point x="100" y="762" type="line"/>
      <point x="206" y="762" type="line"/>
      <point x="229" y="663" type="line"/>
      <point x="266" y="718"/>
      <point x="378" y="776"/>
      <point x="451" y="776" type="qcurve" smooth="yes"/>
      <point x="593" y="776"/>
      <point x="750" y="551"/>
      <point x="750" y="367" type="qcurve" smooth="yes"/>
    </contour>
    <contour>
      <point x="610" y="367" type="line" smooth="yes"/>
      <point x="610" y="497"/>
      <point x="509" y="663"/>
      <point x="410" y="663" type="qcurve" smooth="yes"/>
      <point x="350" y="663"/>
      <point x="266" y="609"/>
      <point x="239" y="562" type="qcurve"/>
      <point x="239" y="194" type="line"/>
      <point x="266" y="146"/>
      <point x="350" y="94"/>
      <point x="411" y="94" type="qcurve" smooth="yes"/>
      <point x="510" y="94"/>
      <point x="610" y="238"/>
      <point x="610" y="352" type="qcurve" smooth="yes"/>
    </contour>
  </outline>
</glyph>
<glyph name="q" format="2">
  <advance width="818"/>
  <unicode hex="0071"/>
  <outline>
    <contour>
      <point x="69" y="367" type="line" smooth="yes"/>
      <point x="69" y="551"/>
      <point x="226" y="776"/>
      <point x="368" y="776" type="qcurve" smooth="yes"/>
      <point x="435" y="776"/>
      <point x="542" y="723"/>
      <point x="579" y="674" type="qcurve"/>
      <point x="599" y="762" type="line"/>
      <point x="706" y="762" type="line"/>
      <point x="706" y="-293" type="line"/>
      <point x="566" y="-293" type="line"/>
      <point x="566" y="72" type="line"/>
      <point x="530" y="29"/>
      <point x="430" y="-15"/>
      <point x="366" y="-15" type="qcurve" smooth="yes"/>
      <point x="227" y="-15"/>
      <point x="69" y="187"/>
      <point x="69" y="352" type="qcurve" smooth="yes"/>
    </contour>
    <contour>
      <point x="208" y="352" type="line" smooth="yes"/>
      <point x="208" y="237"/>
      <point x="302" y="94"/>
      <point x="402" y="94" type="qcurve" smooth="yes"/>
      <point x="458" y="94"/>
      <point x="539" y="144"/>
      <point x="566" y="190" type="qcurve"/>
      <point x="566" y="574" type="line"/>
      <point x="539" y="618"/>
      <point x="458" y="667"/>
      <point x="403" y="667" type="qcurve" smooth="yes"/>
      <point x="304" y="667"/>
      <point x="208" y="498"/>
      <point x="208" y="367" type="qcurve" smooth="yes"/>
    </contour>
  </outline>
</glyph>
<glyph name="r" format="2">
  <advance width="504"/>
  <unicode hex="0072"/>
  <outline>
    <contour>
      <point x="461" y="639" type="line"/>
      <point x="390" y="643" type="line" smooth="yes"/>
      <point x="335" y="643"/>
      <point x="259" y="591"/>
      <point x="239" y="544" type="qcurve"/>
      <point x="239" y="0" type="line"/>
      <point x="100" y="0" type="line"/>
      <point x="100" y="762" type="line"/>
      <point x="224" y="762" type="line"/>
      <point x="238" y="650" type="line"/>
      <point x="270" y="710"/>
      <point x="366" y="776"/>
      <point x="428" y="776" type="qcurve" smooth="yes"/>
      <point x="442" y="776"/>
      <point x="470" y="771"/>
      <point x="481" y="768" type="qcurve"/>
    </contour>
  </outline>
</glyph>
<glyph name="s" format="2">
  <advance width="754"/>
  <unicode hex="0073"/>
  <outline>
    <contour>
      <point x="544" y="205" type="qcurve" smooth="yes"/>
      <point x="544" y="250"/>
      <point x="474" y="308"/>
      <point x="377" y="330" type="qcurve" smooth="yes"/>
      <point x="242" y="359"/>
      <point x="98" y="463"/>
      <point x="98" y="551" type="qcurve" smooth="yes"/>
      <point x="98" y="642"/>
      <point x="256" y="776"/>
      <point x="382" y="776" type="qcurve" smooth="yes"/>
      <point x="512" y="776"/>
      <point x="592" y="706" type="qcurve" smooth="yes"/>
      <point x="669" y="638"/>
      <point x="669" y="548" type="qcurve" smooth="yes"/>
      <point x="669" y="541" type="line"/>
      <point x="667" y="537" type="line"/>
      <point x="535" y="537" type="line"/>
      <point x="535" y="586"/>
      <point x="449" y="667"/>
      <point x="382" y="667" type="qcurve" smooth="yes"/>
      <point x="308" y="667"/>
      <point x="237" y="600"/>
      <point x="237" y="554" type="qcurve" smooth="yes"/>
      <point x="237" y="510"/>
      <point x="299" y="460"/>
      <point x="397" y="440" type="qcurve" smooth="yes"/>
      <point x="537" y="410"/>
      <point x="682" y="302"/>
      <point x="682" y="214" type="qcurve" smooth="yes"/>
      <point x="682" y="114"/>
      <point x="518" y="-15"/>
      <point x="386" y="-15" type="qcurve" smooth="yes"/>
      <point x="240" y="-15"/>
      <point x="156" y="59" type="qcurve" smooth="yes"/>
      <point x="77" y="129"/>
      <point x="77" y="220" type="qcurve" smooth="yes"/>
      <point x="77" y="231" type="line"/>
      <point x="78" y="236" type="line"/>
      <point x="210" y="236" type="line"/>
      <point x="214" y="162"/>
      <point x="317" y="94"/>
      <point x="386" y="94" type="qcurve" smooth="yes"/>
      <point x="459" y="94"/>
      <point x="544" y="157"/>
    </contour>
  </outline>
</glyph>
<glyph name="t" format="2">
  <advance width="485"/>
  <unicode hex="0074"/>
  <outline>
    <contour>
      <point x="294" y="945" type="line"/>
      <point x="294" y="762" type="line"/>
      <point x="438" y="762" type="line"/>
      <point x="438" y="659" type="line"/>
      <point x="294" y="659" type="line"/>
      <point x="294" y="196" type="line" smooth="yes"/>
      <point x="294" y="142"/>
      <point x="338" y="99"/>
      <point x="375" y="99" type="qcurve" smooth="yes"/>
      <point x="386" y="99"/>
      <point x="416" y="106"/>
      <point x="426" y="109" type="qcurve"/>
      <point x="446" y="14" type="line"/>
      <point x="430" y="2"/>
      <point x="369" y="-15"/>
      <point x="340" y="-15" type="qcurve" smooth="yes"/>
      <point x="255" y="-15"/>
      <point x="155" y="87"/>
      <point x="155" y="196" type="qcurve" smooth="yes"/>
      <point x="155" y="659" type="line"/>
      <point x="34" y="659" type="line"/>
      <point x="34" y="762" type="line"/>
      <point x="155" y="762" type="line"/>
      <point x="155" y="945" type="line"/>
    </contour>
  </outline>
</glyph>
<glyph name="u" format="2">
  <advance width="818"/>
  <unicode hex="0075"/>
  <outline>
    <contour>
      <point x="584" y="113" type="line"/>
      <point x="549" y="51"/>
      <point x="435" y="-15"/>
      <point x="362" y="-15" type="qcurve" smooth="yes"/>
      <point x="238" y="-15"/>
      <point x="98" y="144"/>
      <point x="98" y="313" type="qcurve" smooth="yes"/>
      <point x="98" y="762" type="line"/>
      <point x="237" y="762" type="line"/>
      <point x="237" y="311" type="line" smooth="yes"/>
      <point x="237" y="190"/>
      <point x="308" y="98"/>
      <point x="385" y="98" type="qcurve" smooth="yes"/>
      <point x="458" y="98"/>
      <point x="554" y="158"/>
      <point x="579" y="213" type="qcurve"/>
      <point x="579" y="762" type="line"/>
      <point x="718" y="762" type="line"/>
      <point x="718" y="0" type="line"/>
      <point x="593" y="0" type="line"/>
    </contour>
  </outline>
</glyph>
<glyph name="v" format="2">
  <advance width="724"/>
  <unicode hex="0076"/>
  <outline>
    <contour>
      <point x="354" y="224" type="line"/>
      <point x="367" y="170" type="line"/>
      <point x="371" y="170" type="line"/>
      <point x="385" y="224" type="line"/>
      <point x="560" y="762" type="line"/>
      <point x="702" y="762" type="line"/>
      <point x="421" y="0" type="line"/>
      <point x="316" y="0" type="line"/>
      <point x="33" y="762" type="line"/>
      <point x="174" y="762" type="line"/>
    </contour>
  </outline>
</glyph>
<glyph name="w" format="2">
  <advance width="1091"/>
  <unicode hex="0077"/>
  <outline>
    <contour>
      <point x="296" y="277" type="line"/>
      <point x="314" y="179" type="line"/>
      <point x="318" y="179" type="line"/>
      <point x="336" y="277" type="line"/>
      <point x="487" y="762" type="line"/>
      <point x="599" y="762" type="line"/>
      <point x="751" y="277" type="line"/>
      <point x="772" y="168" type="line"/>
      <point x="776" y="168" type="line"/>
      <point x="798" y="277" type="line"/>
      <point x="910" y="762" type="line"/>
      <point x="1056" y="762" type="line"/>
      <point x="835" y="0" type="line"/>
      <point x="723" y="0" type="line"/>
      <point x="572" y="464" type="line"/>
      <point x="544" y="586" type="line"/>
      <point x="539" y="586" type="line"/>
      <point x="512" y="464" type="line"/>
      <point x="364" y="0" type="line"/>
      <point x="253" y="0" type="line"/>
      <point x="32" y="762" type="line"/>
      <point x="176" y="762" type="line"/>
    </contour>
  </outline>
</glyph>
<glyph name="x" format="2">
  <advance width="724"/>
  <unicode hex="0078"/>
  <outline>
    <contour>
      <point x="359" y="481" type="line"/>
      <point x="521" y="762" type="line"/>
      <point x="683" y="762" type="line"/>
      <point x="435" y="386" type="line"/>
      <point x="690" y="0" type="line"/>
      <point x="530" y="0" type="line"/>
      <point x="362" y="288" type="line"/>
      <point x="193" y="0" type="line"/>
      <point x="33" y="0" type="line"/>
      <point x="287" y="386" type="line"/>
      <point x="40" y="762" type="line"/>
      <point x="199" y="762" type="line"/>
    </contour>
  </outline>
</glyph>
<glyph name="y" format="2">
  <advance width="724"/>
  <unicode hex="0079"/>
  <outline>
    <contour>
      <point x="334" y="282" type="line"/>
      <point x="358" y="186" type="line"/>
      <point x="362" y="186" type="line"/>
      <point x="550" y="762" type="line"/>
      <point x="704" y="762" type="line"/>
      <point x="384" y="-117" type="line" smooth="yes"/>
      <point x="354" y="-194"/>
      <point x="247" y="-308"/>
      <point x="156" y="-308" type="qcurve" smooth="yes"/>
      <point x="139" y="-308"/>
      <point x="86" y="-300"/>
      <point x="72" y="-297" type="qcurve"/>
      <point x="86" y="-187" type="line"/>
      <point x="89" y="-187" type="line" smooth="yes"/>
      <point x="95" y="-187"/>
      <point x="112" y="-188" type="qcurve" smooth="yes"/>
      <point x="141" y="-191"/>
      <point x="149" y="-191" type="qcurve" smooth="yes"/>
      <point x="193" y="-191"/>
      <point x="249" y="-112"/>
      <point x="268" y="-64" type="qcurve" smooth="yes"/>
      <point x="301" y="16" type="line"/>
      <point x="18" y="762" type="line"/>
      <point x="174" y="762" type="line"/>
    </contour>
  </outline>
</glyph>
<glyph name="z" format="2">
  <advance width="724"/>
  <unicode hex="007A"/>
  <outline>
    <contour>
      <point x="231" y="108" type="line"/>
      <point x="671" y="108" type="line"/>
      <point x="671" y="0" type="line"/>
      <point x="66" y="0" type="line"/>
      <point x="66" y="97" type="line"/>
      <point x="478" y="652" type="line"/>
      <point x="71" y="652" type="line"/>
      <point x="71" y="762" type="line"/>
      <point x="648" y="762" type="line"/>
      <point x="648" y="667" type="line"/>
    </contour>
  </outline>
</glyph>
<glyph name="braceleft" format="2">
  <advance width="490"/>
  <unicode hex="007B"/>
  <outline>
    <contour>
      <point x="15" y="631" type="qcurve"/>
      <point x="17" y="713"/>
      <point x="101" y="735" type="qcurve"/>
      <point x="138" y="735" type="line"/>
      <point x="142" y="734" type="line"/>
      <point x="146" y="734" type="line"/>
      <point x="149" y="732" type="line"/>
      <point x="156" y="732" type="line" smooth="yes"/>
      <point x="165" y="731"/>
      <point x="177" y="729" type="qcurve" smooth="yes"/>
      <point x="185" y="729" type="line"/>
      <point x="187" y="727" type="line"/>
      <point x="191" y="727" type="line"/>
      <point x="211" y="724" type="line"/>
      <point x="217" y="724" type="line"/>
      <point x="227" y="721" type="line"/>
      <point x="231" y="721" type="line"/>
      <point x="238" y="720" type="line"/>
      <point x="244" y="719" type="line"/>
      <point x="253" y="717" type="line" smooth="yes"/>
      <point x="255" y="718"/>
      <point x="257" y="718" type="qcurve" smooth="yes"/>
      <point x="261" y="718"/>
      <point x="266" y="716" type="qcurve" smooth="yes"/>
      <point x="275" y="716" type="line"/>
      <point x="281" y="715" type="line"/>
      <point x="294" y="715" type="line"/>
      <point x="300" y="713" type="line"/>
      <point x="404" y="713" type="line" smooth="yes"/>
      <point x="408" y="715"/>
      <point x="414" y="715" type="qcurve" smooth="yes"/>
      <point x="418" y="715" type="line"/>
      <point x="418" y="713" type="line"/>
      <point x="409" y="698" type="line"/>
      <point x="408" y="694" type="line"/>
      <point x="403" y="686" type="line"/>
      <point x="400" y="683" type="line"/>
      <point x="399" y="679" type="line"/>
      <point x="397" y="675" type="line"/>
      <point x="395" y="672" type="line"/>
      <point x="392" y="668" type="line" smooth="yes"/>
      <point x="388" y="660"/>
      <point x="381" y="650" type="qcurve"/>
      <point x="380" y="645" type="line"/>
      <point x="182" y="634"/>
      <point x="69" y="450" type="qcurve"/>
      <point x="69" y="446" type="line" smooth="yes"/>
      <point x="66" y="439"/>
      <point x="62" y="431" type="qcurve" smooth="yes"/>
      <point x="61" y="427" type="line"/>
      <point x="59" y="424" type="line"/>
      <point x="59" y="420" type="line"/>
      <point x="58" y="418" type="line"/>
      <point x="54" y="408" type="line"/>
      <point x="49" y="386" type="line"/>
      <point x="47" y="373" type="line"/>
      <point x="47" y="370" type="line" smooth="yes"/>
      <point x="45" y="355"/>
      <point x="45" y="341" type="qcurve" smooth="yes"/>
      <point x="45" y="231"/>
      <point x="158" y="176" type="qcurve"/>
      <point x="231" y="145"/>
      <point x="310" y="145" type="qcurve" smooth="yes"/>
      <point x="398" y="145"/>
      <point x="493" y="184" type="qcurve"/>
      <point x="488" y="177" type="line"/>
      <point x="465" y="160" type="line"/>
      <point x="464" y="158" type="line"/>
      <point x="460" y="157" type="line" smooth="yes"/>
      <point x="457" y="154"/>
      <point x="451" y="150" type="qcurve" smooth="yes"/>
      <point x="449" y="149" type="line" smooth="yes"/>
      <point x="444" y="144"/>
      <point x="435" y="140" type="qcurve"/>
      <point x="433" y="137" type="line"/>
      <point x="411" y="126" type="line"/>
      <point x="402" y="121" type="line"/>
      <point x="389" y="116" type="line"/>
      <point x="385" y="113" type="line"/>
      <point x="381" y="112" type="line" smooth="yes"/>
      <point x="374" y="111"/>
      <point x="365" y="106" type="qcurve" smooth="yes"/>
      <point x="356" y="103" type="line" smooth="yes"/>
      <point x="351" y="102"/>
      <point x="343" y="101" type="qcurve"/>
      <point x="340" y="98" type="line"/>
      <point x="336" y="98" type="line"/>
      <point x="332" y="97" type="line"/>
      <point x="309" y="93" type="line"/>
      <point x="289" y="91" type="line"/>
      <point x="285" y="89" type="line" smooth="yes"/>
      <point x="280" y="89"/>
      <point x="272" y="88" type="qcurve" smooth="yes"/>
      <point x="211" y="88" type="line" smooth="yes"/>
      <point x="203" y="91"/>
      <point x="191" y="91" type="qcurve" smooth="yes"/>
      <point x="182" y="94"/>
      <point x="172" y="94" type="qcurve"/>
      <point x="170" y="96" type="line"/>
      <point x="167" y="97" type="line"/>
      <point x="163" y="98" type="line"/>
      <point x="160" y="98" type="line"/>
      <point x="156" y="99" type="line"/>
      <point x="152" y="101" type="line" smooth="yes"/>
      <point x="151" y="102"/>
      <point x="147" y="102" type="qcurve" smooth="yes"/>
      <point x="119" y="115" type="line"/>
      <point x="114" y="116" type="line"/>
      <point x="105" y="124"/>
      <point x="91" y="130" type="qcurve" smooth="yes"/>
      <point x="91" y="131"/>
      <point x="88" y="132" type="qcurve" smooth="yes"/>
      <point x="83" y="135" type="line" smooth="yes"/>
      <point x="77" y="143"/>
      <point x="66" y="150" type="qcurve" smooth="yes"/>
      <point x="58" y="159" type="line"/>
      <point x="54" y="162" type="line"/>
      <point x="52" y="165" type="line"/>
      <point x="49" y="169" type="line"/>
      <point x="45" y="172" type="line" smooth="yes"/>
      <point x="45" y="174"/>
      <point x="43" y="176" type="qcurve" smooth="yes"/>
      <point x="40" y="179" type="line"/>
      <point x="39" y="183" type="line"/>
      <point x="35" y="186" type="line"/>
      <point x="31" y="196"/>
      <point x="23" y="209" type="qcurve" smooth="yes"/>
      <point x="21" y="212" type="line"/>
      <point x="19" y="220" type="line"/>
      <point x="17" y="222" type="line"/>
      <point x="12" y="234" type="line" smooth="yes"/>
      <point x="12" y="235"/>
      <point x="11" y="236" type="qcurve" smooth="yes"/>
      <point x="11" y="240" type="line"/>
      <point x="6" y="252"/>
      <point x="5" y="267" type="qcurve"/>
      <point x="4" y="269" type="line" smooth="yes"/>
      <point x="4" y="276"/>
      <point x="1" y="283" type="qcurve" smooth="yes"/>
      <point x="1" y="300" type="line" smooth="yes"/>
      <point x="1" y="531"/>
      <point x="208" y="655" type="qcurve"/>
      <point x="185" y="658" type="line"/>
      <point x="182" y="659" type="line"/>
      <point x="179" y="659" type="line"/>
      <point x="146" y="671"/>
      <point x="116" y="671" type="qcurve" smooth="yes"/>
      <point x="60" y="671"/>
    </contour>
    <contour>
      <point x="366" y="409" type="line"/>
      <point x="326" y="339" type="line"/>
      <point x="262" y="380" type="line"/>
      <point x="300" y="450" type="line"/>
    </contour>
  </outline>
</glyph>
<glyph name="bar" format="2">
  <advance width="358"/>
  <unicode hex="007C"/>
  <outline>
    <contour>
      <point x="241" y="-190" type="line"/>
      <point x="102" y="-190" type="line"/>
      <point x="102" y="1025" type="line"/>
      <point x="241" y="1025" type="line"/>
    </contour>
  </outline>
</glyph>
<glyph name="braceright" format="2">
  <advance width="551"/>
  <unicode hex="007D"/>
  <outline>
    <contour>
      <point x="426" y="497" type="line"/>
      <point x="435" y="512" type="line"/>
      <point x="487" y="426"/>
      <point x="487" y="318" type="qcurve" smooth="yes"/>
      <point x="487" y="303"/>
      <point x="486" y="288" type="qcurve" smooth="yes"/>
      <point x="486" y="276"/>
      <point x="482" y="259" type="qcurve" smooth="yes"/>
      <point x="480" y="248" type="line"/>
      <point x="473" y="229" type="line"/>
      <point x="472" y="225" type="line"/>
      <point x="472" y="221" type="line"/>
      <point x="467" y="214"/>
      <point x="465" y="204" type="qcurve"/>
      <point x="401" y="121"/>
      <point x="282" y="104" type="qcurve"/>
      <point x="270" y="104" type="line" smooth="yes"/>
      <point x="122" y="104"/>
      <point x="69" y="174" type="qcurve" smooth="yes"/>
      <point x="39" y="214"/>
      <point x="39" y="276" type="qcurve" smooth="yes"/>
      <point x="39" y="341"/>
      <point x="72" y="431" type="qcurve" smooth="yes"/>
      <point x="78" y="436"/>
      <point x="81" y="446" type="qcurve" smooth="yes"/>
      <point x="85" y="449"/>
      <point x="88" y="456" type="qcurve" smooth="yes"/>
      <point x="92" y="459" type="line"/>
      <point x="98" y="465" type="line" smooth="yes"/>
      <point x="102" y="464"/>
      <point x="104" y="462" type="qcurve" smooth="yes"/>
      <point x="106" y="460"/>
      <point x="106" y="455" type="qcurve" smooth="yes"/>
      <point x="106" y="453"/>
      <point x="105" y="449" type="qcurve" smooth="yes"/>
      <point x="79" y="395"/>
      <point x="79" y="347" type="qcurve" smooth="yes"/>
      <point x="79" y="295"/>
      <point x="110" y="250" type="qcurve"/>
      <point x="169" y="187"/>
      <point x="261" y="187" type="qcurve" smooth="yes"/>
      <point x="285" y="187"/>
      <point x="312" y="191" type="qcurve" smooth="yes"/>
      <point x="383" y="201"/>
      <point x="447" y="246" type="qcurve"/>
      <point x="447" y="256" type="line" smooth="yes"/>
      <point x="447" y="326"/>
      <point x="410" y="396" type="qcurve"/>
      <point x="398" y="427" type="line"/>
      <point x="395" y="429" type="line"/>
      <point x="395" y="435" type="line"/>
      <point x="403" y="445"/>
      <point x="409" y="462" type="qcurve" smooth="yes"/>
      <point x="410" y="465" type="line" smooth="yes"/>
      <point x="413" y="469"/>
      <point x="416" y="476" type="qcurve" smooth="yes"/>
      <point x="419" y="480"/>
      <point x="420" y="488" type="qcurve" smooth="yes"/>
      <point x="423" y="493" type="line"/>
    </contour>
    <contour>
      <point x="324" y="555" type="line"/>
      <point x="271" y="472" type="line"/>
      <point x="193" y="527" type="line"/>
      <point x="244" y="614" type="line"/>
    </contour>
  </outline>
</glyph>
<glyph name="asciitilde" format="2">
  <advance width="979"/>
  <unicode hex="007E"/>
  <outline>
    <contour>
      <point x="890" y="521" type="line"/>
      <point x="890" y="424"/>
      <point x="767" y="282"/>
      <point x="676" y="282" type="qcurve" smooth="yes"/>
      <point x="613" y="282"/>
      <point x="509" y="329"/>
      <point x="449" y="381" type="qcurve" smooth="yes"/>
      <point x="407" y="415"/>
      <point x="339" y="449"/>
      <point x="304" y="449" type="qcurve" smooth="yes"/>
      <point x="255" y="449"/>
      <point x="190" y="374"/>
      <point x="190" y="322" type="qcurve"/>
      <point x="90" y="334" type="line"/>
      <point x="90" y="430"/>
      <point x="210" y="565"/>
      <point x="304" y="565" type="qcurve" smooth="yes"/>
      <point x="366" y="565"/>
      <point x="470" y="517"/>
      <point x="530" y="467" type="qcurve" smooth="yes"/>
      <point x="572" y="431"/>
      <point x="639" y="399"/>
      <point x="676" y="399" type="qcurve" smooth="yes"/>
      <point x="722" y="399"/>
      <point x="790" y="479"/>
      <point x="790" y="534" type="qcurve"/>
    </contour>
  </outline>
</glyph>
<glyph name="brokenbar" format="2">
  <advance width="376"/>
  <unicode hex="00A6"/>
  <outline>
    <contour>
      <point x="151" y="-268" type="line"/>
      <point x="151" y="176" type="line"/>
      <point x="226" y="176" type="line"/>
      <point x="226" y="-268" type="line"/>
    </contour>
    <contour>
      <point x="151" y="360" type="line"/>
      <point x="151" y="804" type="line"/>
      <point x="226" y="804" type="line"/>
      <point x="226" y="360" type="line"/>
    </contour>
  </outline>
</glyph>
<glyph name="section" format="2">
  <advance width="662"/>
  <unicode hex="00A7"/>
  <outline>
    <contour>
      <point x="430" y="705" type="line"/>
      <point x="414" y="721"/>
      <point x="361" y="746"/>
      <point x="335" y="746" type="qcurve" smooth="yes"/>
      <point x="315" y="746"/>
      <point x="279" y="733"/>
      <point x="252" y="711"/>
      <point x="235" y="675"/>
      <point x="235" y="654" type="qcurve" smooth="yes"/>
      <point x="235" y="618"/>
      <point x="264" y="591" type="qcurve" smooth="yes"/>
      <point x="293" y="561"/>
      <point x="360" y="495"/>
      <point x="426" y="427"/>
      <point x="486" y="358"/>
      <point x="512" y="323" type="qcurve" smooth="yes"/>
      <point x="539" y="286"/>
      <point x="571" y="211"/>
      <point x="571" y="178" type="qcurve" smooth="yes"/>
      <point x="571" y="122"/>
      <point x="548" y="77" type="qcurve" smooth="yes"/>
      <point x="526" y="32"/>
      <point x="478" y="-18" type="qcurve"/>
      <point x="479" y="-18" type="line"/>
      <point x="487" y="-39"/>
      <point x="487" y="-59" type="qcurve" smooth="yes"/>
      <point x="487" y="-95"/>
      <point x="446" y="-172"/>
      <point x="381" y="-233"/>
      <point x="302" y="-272"/>
      <point x="266" y="-272" type="qcurve" smooth="yes"/>
      <point x="252" y="-272"/>
      <point x="218" y="-265"/>
      <point x="189" y="-249"/>
      <point x="169" y="-223"/>
      <point x="169" y="-205" type="qcurve" smooth="yes"/>
      <point x="169" y="-184"/>
      <point x="201" y="-163"/>
      <point x="222" y="-160" type="qcurve" smooth="yes"/>
      <point x="224" y="-160" type="line"/>
      <point x="243" y="-176"/>
      <point x="293" y="-197"/>
      <point x="318" y="-197" type="qcurve" smooth="yes"/>
      <point x="338" y="-197"/>
      <point x="374" y="-183"/>
      <point x="400" y="-156"/>
      <point x="416" y="-119"/>
      <point x="416" y="-97" type="qcurve" smooth="yes"/>
      <point x="416" y="-79"/>
      <point x="407" y="-63" type="qcurve" smooth="yes"/>
      <point x="404" y="-55"/>
      <point x="394" y="-42"/>
      <point x="387" y="-34" type="qcurve" smooth="yes"/>
      <point x="358" y="-6"/>
      <point x="326" y="27" type="qcurve" smooth="yes"/>
      <point x="260" y="92" type="line" smooth="yes"/>
      <point x="227" y="125"/>
      <point x="167" y="193"/>
      <point x="143" y="227" type="qcurve" smooth="yes"/>
      <point x="117" y="265"/>
      <point x="84" y="338"/>
      <point x="84" y="372" type="qcurve" smooth="yes"/>
      <point x="84" y="398"/>
      <point x="95" y="448"/>
      <point x="117" y="495"/>
      <point x="135" y="519" type="qcurve" smooth="yes"/>
      <point x="151" y="542"/>
      <point x="175" y="567" type="qcurve" smooth="yes"/>
      <point x="173" y="570"/>
      <point x="172" y="574" type="qcurve" smooth="yes"/>
      <point x="164" y="594"/>
      <point x="164" y="615" type="qcurve" smooth="yes"/>
      <point x="164" y="649"/>
      <point x="206" y="721"/>
      <point x="271" y="781"/>
      <point x="350" y="821"/>
      <point x="385" y="821" type="qcurve" smooth="yes"/>
      <point x="404" y="821"/>
      <point x="442" y="812"/>
      <point x="472" y="795"/>
      <point x="491" y="772"/>
      <point x="491" y="757" type="qcurve" smooth="yes"/>
      <point x="491" y="737"/>
      <point x="460" y="711"/>
      <point x="433" y="705" type="qcurve"/>
    </contour>
    <contour>
      <point x="459" y="17" type="qcurve"/>
      <point x="472" y="31"/>
      <point x="486" y="54" type="qcurve" smooth="yes"/>
      <point x="501" y="78"/>
      <point x="501" y="117" type="qcurve" smooth="yes"/>
      <point x="501" y="150"/>
      <point x="469" y="221"/>
      <point x="444" y="256" type="qcurve" smooth="yes"/>
      <point x="425" y="284"/>
      <point x="378" y="339"/>
      <point x="329" y="392"/>
      <point x="280" y="439"/>
      <point x="261" y="460" type="qcurve" smooth="yes"/>
      <point x="243" y="477"/>
      <point x="226" y="496" type="qcurve" smooth="yes"/>
      <point x="209" y="514"/>
      <point x="195" y="532" type="qcurve"/>
      <point x="183" y="519"/>
      <point x="169" y="495" type="qcurve" smooth="yes"/>
      <point x="154" y="470"/>
      <point x="154" y="432" type="qcurve" smooth="yes"/>
      <point x="154" y="398"/>
      <point x="186" y="329"/>
      <point x="210" y="294" type="qcurve" smooth="yes"/>
      <point x="230" y="266"/>
      <point x="275" y="213"/>
      <point x="323" y="163"/>
      <point x="370" y="117"/>
      <point x="389" y="96" type="qcurve" smooth="yes"/>
      <point x="407" y="78"/>
      <point x="442" y="42"/>
      <point x="456" y="22" type="qcurve" smooth="yes"/>
      <point x="458" y="20"/>
    </contour>
  </outline>
</glyph>
<glyph name="dieresis" format="2">
  <advance width="586"/>
  <unicode hex="00A8"/>
  <outline>
    <contour>
      <point x="399" y="601" type="qcurve" smooth="yes"/>
      <point x="376" y="601"/>
      <point x="345" y="634"/>
      <point x="345" y="657" type="qcurve" smooth="yes"/>
      <point x="345" y="680"/>
      <point x="376" y="712"/>
      <point x="399" y="712" type="qcurve" smooth="yes"/>
      <point x="424" y="712"/>
      <point x="455" y="680"/>
      <point x="455" y="657" type="qcurve" smooth="yes"/>
      <point x="455" y="634"/>
      <point x="422" y="601"/>
    </contour>
    <contour>
      <point x="186" y="601" type="qcurve" smooth="yes"/>
      <point x="163" y="601"/>
      <point x="131" y="634"/>
      <point x="131" y="657" type="qcurve" smooth="yes"/>
      <point x="131" y="680"/>
      <point x="164" y="712"/>
      <point x="186" y="712" type="qcurve" smooth="yes"/>
      <point x="209" y="712"/>
      <point x="241" y="680"/>
      <point x="241" y="657" type="qcurve" smooth="yes"/>
      <point x="241" y="634"/>
      <point x="209" y="601"/>
    </contour>
  </outline>
</glyph>
<glyph name="copyright" format="2">
  <advance width="979"/>
  <unicode hex="00A9"/>
  <outline>
    <contour>
      <point x="84" y="403" type="qcurve" smooth="yes"/>
      <point x="84" y="486"/>
      <point x="147" y="631"/>
      <point x="258" y="737"/>
      <point x="407" y="800"/>
      <point x="491" y="800" type="qcurve" smooth="yes"/>
      <point x="574" y="800"/>
      <point x="721" y="737"/>
      <point x="832" y="631"/>
      <point x="895" y="486"/>
      <point x="895" y="403" type="qcurve" smooth="yes"/>
      <point x="895" y="319"/>
      <point x="832" y="174"/>
      <point x="721" y="66"/>
      <point x="574" y="4"/>
      <point x="491" y="4" type="qcurve" smooth="yes"/>
      <point x="407" y="4"/>
      <point x="258" y="66"/>
      <point x="147" y="174"/>
      <point x="84" y="319"/>
    </contour>
    <contour>
      <point x="137" y="403" type="qcurve" smooth="yes"/>
      <point x="137" y="328"/>
      <point x="194" y="198"/>
      <point x="288" y="101"/>
      <point x="417" y="46"/>
      <point x="491" y="46" type="qcurve" smooth="yes"/>
      <point x="563" y="46"/>
      <point x="691" y="101"/>
      <point x="787" y="198"/>
      <point x="843" y="328"/>
      <point x="843" y="403" type="qcurve" smooth="yes"/>
      <point x="843" y="477"/>
      <point x="787" y="606"/>
      <point x="691" y="702"/>
      <point x="563" y="758"/>
      <point x="491" y="758" type="qcurve" smooth="yes"/>
      <point x="417" y="758"/>
      <point x="288" y="702"/>
      <point x="194" y="606"/>
      <point x="137" y="477"/>
    </contour>
    <contour>
      <point x="645" y="495" type="qcurve"/>
      <point x="615" y="494" type="line"/>
      <point x="613" y="543"/>
      <point x="557" y="591"/>
      <point x="517" y="591" type="qcurve" smooth="yes"/>
      <point x="477" y="591"/>
      <point x="417" y="564"/>
      <point x="375" y="517"/>
      <point x="354" y="451"/>
      <point x="354" y="411" type="qcurve" smooth="yes"/>
      <point x="354" y="372"/>
      <point x="374" y="302"/>
      <point x="415" y="250"/>
      <point x="473" y="219"/>
      <point x="513" y="219" type="qcurve" smooth="yes"/>
      <point x="535" y="219"/>
      <point x="576" y="232"/>
      <point x="592" y="248" type="qcurve" smooth="yes"/>
      <point x="605" y="261"/>
      <point x="627" y="301"/>
      <point x="636" y="328" type="qcurve"/>
      <point x="662" y="321" type="line"/>
      <point x="654" y="289"/>
      <point x="646" y="235"/>
      <point x="643" y="205" type="qcurve"/>
      <point x="605" y="196"/>
      <point x="535" y="183"/>
      <point x="497" y="183" type="qcurve" smooth="yes"/>
      <point x="446" y="183"/>
      <point x="358" y="213"/>
      <point x="294" y="269"/>
      <point x="257" y="350"/>
      <point x="257" y="399" type="qcurve" smooth="yes"/>
      <point x="257" y="455"/>
      <point x="301" y="540"/>
      <point x="375" y="597"/>
      <point x="473" y="625"/>
      <point x="528" y="625" type="qcurve" smooth="yes"/>
      <point x="557" y="625"/>
      <point x="621" y="617"/>
      <point x="649" y="609" type="qcurve"/>
      <point x="646" y="580"/>
      <point x="645" y="525"/>
    </contour>
  </outline>
</glyph>
<glyph name="guillemotleft" format="2">
  <advance width="550"/>
  <unicode hex="00AB"/>
  <outline>
    <contour>
      <point x="261" y="484" type="line"/>
      <point x="485" y="134" type="line"/>
      <point x="354" y="134" type="line"/>
      <point x="95" y="476" type="line"/>
      <point x="95" y="493" type="line"/>
      <point x="354" y="835" type="line"/>
      <point x="485" y="835" type="line"/>
    </contour>
    <contour>
      <point x="445" y="484" type="line"/>
      <point x="669" y="134" type="line"/>
      <point x="538" y="134" type="line"/>
      <point x="279" y="476" type="line"/>
      <point x="279" y="493" type="line"/>
      <point x="538" y="835" type="line"/>
      <point x="669" y="835" type="line"/>
    </contour>
  </outline>
</glyph>
<glyph name="uni00AD" format="2">
  <advance width="812"/>
  <unicode hex="00AD"/>
  <outline>
    <contour>
      <point x="667" y="473" type="line"/>
      <point x="147" y="473" type="line"/>
      <point x="147" y="609" type="line"/>
      <point x="667" y="609" type="line"/>
    </contour>
  </outline>
</glyph>
<glyph name="registered" format="2">
  <advance width="979"/>
  <unicode hex="00AE"/>
  <outline>
    <contour>
      <point x="84" y="403" type="qcurve" smooth="yes"/>
      <point x="84" y="486"/>
      <point x="147" y="631"/>
      <point x="258" y="737"/>
      <point x="407" y="800"/>
      <point x="491" y="800" type="qcurve" smooth="yes"/>
      <point x="574" y="800"/>
      <point x="721" y="737"/>
      <point x="832" y="631"/>
      <point x="895" y="486"/>
      <point x="895" y="403" type="qcurve" smooth="yes"/>
      <point x="895" y="319"/>
      <point x="832" y="174"/>
      <point x="721" y="66"/>
      <point x="574" y="4"/>
      <point x="491" y="4" type="qcurve" smooth="yes"/>
      <point x="407" y="4"/>
      <point x="258" y="66"/>
      <point x="147" y="174"/>
      <point x="84" y="319"/>
    </contour>
    <contour>
      <point x="137" y="403" type="qcurve" smooth="yes"/>
      <point x="137" y="328"/>
      <point x="194" y="198"/>
      <point x="288" y="101"/>
      <point x="417" y="46"/>
      <point x="491" y="46" type="qcurve" smooth="yes"/>
      <point x="563" y="46"/>
      <point x="691" y="101"/>
      <point x="787" y="198"/>
      <point x="843" y="328"/>
      <point x="843" y="403" type="qcurve" smooth="yes"/>
      <point x="843" y="477"/>
      <point x="787" y="606"/>
      <point x="691" y="702"/>
      <point x="563" y="758"/>
      <point x="491" y="758" type="qcurve" smooth="yes"/>
      <point x="417" y="758"/>
      <point x="288" y="702"/>
      <point x="194" y="606"/>
      <point x="137" y="477"/>
    </contour>
    <contour>
      <point x="437" y="382" type="line"/>
      <point x="437" y="254" type="line" smooth="yes"/>
      <point x="437" y="244"/>
      <point x="440" y="230"/>
      <point x="451" y="220"/>
      <point x="474" y="216"/>
      <point x="495" y="215" type="qcurve"/>
      <point x="494" y="191" type="line"/>
      <point x="304" y="191" type="line"/>
      <point x="301" y="215" type="line"/>
      <point x="319" y="216"/>
      <point x="341" y="221"/>
      <point x="354" y="233"/>
      <point x="359" y="253"/>
      <point x="359" y="268" type="qcurve" smooth="yes"/>
      <point x="359" y="553" type="line" smooth="yes"/>
      <point x="359" y="574"/>
      <point x="338" y="591"/>
      <point x="300" y="592" type="qcurve"/>
      <point x="301" y="616" type="line"/>
      <point x="316" y="616"/>
      <point x="366" y="615"/>
      <point x="391" y="615" type="qcurve" smooth="yes"/>
      <point x="414" y="615"/>
      <point x="460" y="618"/>
      <point x="486" y="618" type="qcurve" smooth="yes"/>
      <point x="512" y="618"/>
      <point x="570" y="612"/>
      <point x="618" y="591"/>
      <point x="651" y="551"/>
      <point x="651" y="519" type="qcurve" smooth="yes"/>
      <point x="651" y="477"/>
      <point x="601" y="416"/>
      <point x="562" y="403" type="qcurve"/>
      <point x="575" y="376"/>
      <point x="601" y="329"/>
      <point x="623" y="288"/>
      <point x="640" y="260"/>
      <point x="647" y="251" type="qcurve" smooth="yes"/>
      <point x="653" y="239"/>
      <point x="668" y="227"/>
      <point x="684" y="218"/>
      <point x="707" y="216"/>
      <point x="724" y="215" type="qcurve"/>
      <point x="723" y="191" type="line"/>
      <point x="586" y="191" type="line"/>
      <point x="582" y="199"/>
      <point x="565" y="234"/>
      <point x="543" y="279"/>
      <point x="514" y="333"/>
      <point x="497" y="362" type="qcurve" smooth="yes"/>
      <point x="491" y="372"/>
      <point x="480" y="382"/>
      <point x="465" y="382" type="qcurve" smooth="yes"/>
    </contour>
    <contour>
      <point x="437" y="546" type="qcurve" smooth="yes"/>
      <point x="437" y="413" type="line"/>
      <point x="464" y="413" type="line" smooth="yes"/>
      <point x="508" y="413"/>
      <point x="563" y="464"/>
      <point x="563" y="512" type="qcurve" smooth="yes"/>
      <point x="563" y="549"/>
      <point x="513" y="585"/>
      <point x="475" y="585" type="qcurve" smooth="yes"/>
      <point x="453" y="585"/>
      <point x="437" y="566"/>
    </contour>
  </outline>
</glyph>
<glyph name="uni00B2" format="2">
  <advance width="439"/>
  <unicode hex="00B2"/>
  <outline>
    <contour>
      <point x="94" y="659" type="qcurve"/>
      <point x="63" y="661" type="line"/>
      <point x="63" y="694"/>
      <point x="62" y="748"/>
      <point x="59" y="774" type="qcurve"/>
      <point x="89" y="796"/>
      <point x="165" y="821"/>
      <point x="206" y="821" type="qcurve" smooth="yes"/>
      <point x="235" y="821"/>
      <point x="299" y="803"/>
      <point x="351" y="769"/>
      <point x="384" y="717"/>
      <point x="384" y="684" type="qcurve" smooth="yes"/>
      <point x="384" y="649"/>
      <point x="359" y="594"/>
      <point x="320" y="546"/>
      <point x="273" y="503"/>
      <point x="249" y="480" type="qcurve" smooth="yes"/>
      <point x="136" y="380" type="line"/>
      <point x="315" y="383" type="line" smooth="yes"/>
      <point x="326" y="383"/>
      <point x="342" y="387"/>
      <point x="359" y="399"/>
      <point x="375" y="424"/>
      <point x="385" y="443" type="qcurve"/>
      <point x="410" y="437" type="line"/>
      <point x="407" y="422"/>
      <point x="398" y="389"/>
      <point x="389" y="355"/>
      <point x="385" y="324"/>
      <point x="385" y="315" type="qcurve"/>
      <point x="231" y="315" type="line" smooth="yes"/>
      <point x="207" y="315"/>
      <point x="175" y="316"/>
      <point x="159" y="316" type="qcurve" smooth="yes"/>
      <point x="147" y="316"/>
      <point x="111" y="315"/>
      <point x="92" y="315" type="qcurve" smooth="yes"/>
      <point x="34" y="315" type="line"/>
      <point x="29" y="332" type="line"/>
      <point x="166" y="462" type="line" smooth="yes"/>
      <point x="201" y="495"/>
      <point x="261" y="558"/>
      <point x="277" y="591" type="qcurve" smooth="yes"/>
      <point x="285" y="605"/>
      <point x="294" y="643"/>
      <point x="294" y="662" type="qcurve" smooth="yes"/>
      <point x="294" y="681"/>
      <point x="282" y="716"/>
      <point x="253" y="741"/>
      <point x="217" y="755"/>
      <point x="197" y="756" type="qcurve" smooth="yes"/>
      <point x="190" y="756" type="line" smooth="yes"/>
      <point x="173" y="756"/>
      <point x="137" y="746"/>
      <point x="124" y="733" type="qcurve" smooth="yes"/>
      <point x="97" y="707"/>
    </contour>
  </outline>
</glyph>
<glyph name="uni00B3" format="2">
  <advance width="439"/>
  <unicode hex="00B3"/>
  <outline>
    <contour>
      <point x="61" y="676" type="line"/>
      <point x="61" y="708"/>
      <point x="59" y="757"/>
      <point x="58" y="781" type="qcurve"/>
      <point x="95" y="800"/>
      <point x="169" y="821"/>
      <point x="212" y="821" type="qcurve" smooth="yes"/>
      <point x="235" y="821"/>
      <point x="293" y="810"/>
      <point x="341" y="785"/>
      <point x="373" y="746"/>
      <point x="373" y="718" type="qcurve" smooth="yes"/>
      <point x="373" y="680"/>
      <point x="328" y="627"/>
      <point x="294" y="603" type="qcurve"/>
      <point x="294" y="601" type="line"/>
      <point x="344" y="586"/>
      <point x="403" y="513"/>
      <point x="403" y="465" type="qcurve" smooth="yes"/>
      <point x="403" y="420"/>
      <point x="363" y="354"/>
      <point x="301" y="310"/>
      <point x="220" y="289"/>
      <point x="178" y="289" type="qcurve" smooth="yes"/>
      <point x="161" y="289"/>
      <point x="110" y="297"/>
      <point x="64" y="313"/>
      <point x="33" y="343"/>
      <point x="33" y="366" type="qcurve" smooth="yes"/>
      <point x="33" y="383"/>
      <point x="64" y="415"/>
      <point x="87" y="418" type="qcurve" smooth="yes"/>
      <point x="90" y="418" type="line"/>
      <point x="103" y="381"/>
      <point x="165" y="337"/>
      <point x="202" y="337" type="qcurve" smooth="yes"/>
      <point x="226" y="337"/>
      <point x="264" y="353"/>
      <point x="290" y="382"/>
      <point x="306" y="421"/>
      <point x="306" y="446" type="qcurve" smooth="yes"/>
      <point x="306" y="501"/>
      <point x="242" y="552"/>
      <point x="187" y="552" type="qcurve" smooth="yes"/>
      <point x="161" y="552"/>
      <point x="132" y="546" type="qcurve"/>
      <point x="127" y="581" type="line"/>
      <point x="152" y="584"/>
      <point x="208" y="596"/>
      <point x="253" y="619"/>
      <point x="285" y="658"/>
      <point x="285" y="689" type="qcurve" smooth="yes"/>
      <point x="285" y="706"/>
      <point x="269" y="735"/>
      <point x="244" y="754"/>
      <point x="211" y="762"/>
      <point x="194" y="762" type="qcurve" smooth="yes"/>
      <point x="152" y="762"/>
      <point x="92" y="718"/>
      <point x="90" y="675" type="qcurve"/>
    </contour>
  </outline>
</glyph>
<glyph name="acute" format="2">
  <advance width="586"/>
  <unicode hex="00B4"/>
  <outline>
    <contour>
      <point x="269" y="543" type="line"/>
      <point x="339" y="755" type="line"/>
      <point x="427" y="747" type="line"/>
      <point x="431" y="737" type="line"/>
      <point x="301" y="532" type="line"/>
      <point x="272" y="538" type="line"/>
    </contour>
  </outline>
</glyph>
<glyph name="paragraph" format="2">
  <advance width="736"/>
  <unicode hex="00B6"/>
  <outline>
    <contour>
      <point x="363" y="167" type="qcurve"/>
      <point x="299" y="179"/>
      <point x="191" y="235"/>
      <point x="112" y="319"/>
      <point x="67" y="424"/>
      <point x="67" y="483" type="qcurve" smooth="yes"/>
      <point x="67" y="552"/>
      <point x="116" y="671"/>
      <point x="220" y="759"/>
      <point x="385" y="811"/>
      <point x="503" y="811" type="qcurve" smooth="yes"/>
      <point x="533" y="811"/>
      <point x="597" y="807"/>
      <point x="632" y="804" type="qcurve"/>
      <point x="636" y="776" type="line"/>
      <point x="609" y="773"/>
      <point x="574" y="767"/>
      <point x="553" y="756"/>
      <point x="543" y="746"/>
      <point x="541" y="741" type="qcurve" smooth="yes"/>
      <point x="519" y="696"/>
      <point x="488" y="581"/>
      <point x="469" y="460"/>
      <point x="460" y="344"/>
      <point x="460" y="298" type="qcurve" smooth="yes"/>
      <point x="460" y="244"/>
      <point x="469" y="120"/>
      <point x="495" y="-9"/>
      <point x="542" y="-140"/>
      <point x="580" y="-200" type="qcurve"/>
      <point x="580" y="-202" type="line"/>
      <point x="573" y="-227"/>
      <point x="536" y="-257"/>
      <point x="513" y="-257" type="qcurve" smooth="yes"/>
      <point x="486" y="-257"/>
      <point x="464" y="-223"/>
      <point x="459" y="-201" type="qcurve" smooth="yes"/>
      <point x="448" y="-162"/>
      <point x="429" y="-59"/>
      <point x="418" y="56"/>
      <point x="411" y="175"/>
      <point x="411" y="230" type="qcurve" smooth="yes"/>
      <point x="411" y="301"/>
      <point x="420" y="439"/>
      <point x="442" y="574"/>
      <point x="477" y="703"/>
      <point x="507" y="768" type="qcurve"/>
      <point x="458" y="768" type="line"/>
      <point x="409" y="658"/>
      <point x="362" y="402"/>
      <point x="362" y="244" type="qcurve" smooth="yes"/>
      <point x="362" y="226"/>
      <point x="363" y="187"/>
    </contour>
  </outline>
</glyph>
<glyph name="guillemotright" format="2">
  <advance width="550"/>
  <unicode hex="00BB"/>
  <outline>
    <contour>
      <point x="286" y="484" type="line"/>
      <point x="82" y="818" type="line"/>
      <point x="213" y="818" type="line"/>
      <point x="457" y="505" type="line"/>
      <point x="266" y="818" type="line"/>
      <point x="397" y="818" type="line"/>
      <point x="642" y="504" type="line"/>
      <point x="646" y="504" type="line"/>
      <point x="647" y="496" type="line"/>
      <point x="652" y="492" type="line"/>
      <point x="649" y="484" type="line"/>
      <point x="652" y="476" type="line"/>
      <point x="647" y="471" type="line"/>
      <point x="646" y="464" type="line"/>
      <point x="643" y="464" type="line"/>
      <point x="397" y="150" type="line"/>
      <point x="266" y="150" type="line"/>
      <point x="453" y="457" type="line"/>
      <point x="213" y="150" type="line"/>
      <point x="82" y="150" type="line"/>
    </contour>
    <contour>
      <point x="470" y="484" type="line"/>
      <point x="467" y="489" type="line"/>
      <point x="465" y="484" type="line"/>
      <point x="467" y="479" type="line"/>
    </contour>
  </outline>
</glyph>
<glyph name="onequarter" format="2">
  <advance width="1046"/>
  <unicode hex="00BC"/>
  <outline>
    <contour>
      <point x="779" y="33" type="qcurve" smooth="yes"/>
      <point x="779" y="95" type="line"/>
      <point x="550" y="95" type="line"/>
      <point x="539" y="122" type="line"/>
      <point x="574" y="165"/>
      <point x="651" y="267"/>
      <point x="729" y="369"/>
      <point x="803" y="464"/>
      <point x="833" y="504" type="qcurve"/>
      <point x="868" y="495" type="line"/>
      <point x="865" y="470"/>
      <point x="860" y="418"/>
      <point x="860" y="387" type="qcurve" smooth="yes"/>
      <point x="860" y="152" type="line"/>
      <point x="928" y="152" type="line"/>
      <point x="936" y="145" type="line"/>
      <point x="933" y="95" type="line"/>
      <point x="860" y="95" type="line"/>
      <point x="860" y="-9" type="line"/>
      <point x="840" y="-9"/>
      <point x="802" y="-11"/>
      <point x="777" y="-13" type="qcurve"/>
      <point x="778" y="2"/>
      <point x="779" y="25"/>
    </contour>
    <contour>
      <point x="69" y="755" type="line"/>
      <point x="123" y="768"/>
      <point x="223" y="799"/>
      <point x="274" y="816" type="qcurve"/>
      <point x="279" y="812" type="line"/>
      <point x="278" y="796"/>
      <point x="275" y="762"/>
      <point x="275" y="728"/>
      <point x="274" y="697"/>
      <point x="274" y="689" type="qcurve" smooth="yes"/>
      <point x="274" y="399" type="line" smooth="yes"/>
      <point x="274" y="385"/>
      <point x="278" y="364"/>
      <point x="297" y="351"/>
      <point x="334" y="343"/>
      <point x="369" y="342" type="qcurve"/>
      <point x="367" y="315" type="line"/>
      <point x="319" y="315" type="line" smooth="yes"/>
      <point x="302" y="315"/>
      <point x="260" y="316"/>
      <point x="231" y="316" type="qcurve" smooth="yes"/>
      <point x="175" y="316"/>
      <point x="105" y="315"/>
      <point x="88" y="315" type="qcurve"/>
      <point x="86" y="341" type="line"/>
      <point x="123" y="342"/>
      <point x="165" y="350"/>
      <point x="187" y="369"/>
      <point x="191" y="403"/>
      <point x="191" y="429" type="qcurve" smooth="yes"/>
      <point x="191" y="737" type="line"/>
      <point x="77" y="721" type="line"/>
    </contour>
    <contour>
      <point x="772" y="847" type="line"/>
      <point x="816" y="821" type="line"/>
      <point x="271" y="-45" type="line"/>
      <point x="231" y="-18" type="line"/>
    </contour>
    <contour>
      <point x="779" y="151" type="line"/>
      <point x="779" y="365" type="line"/>
      <point x="776" y="366" type="line"/>
      <point x="733" y="313"/>
      <point x="656" y="208"/>
      <point x="613" y="147" type="qcurve"/>
    </contour>
  </outline>
</glyph>
<glyph name="onehalf" format="2">
  <advance width="1046"/>
  <unicode hex="00BD"/>
  <outline>
    <contour>
      <point x="701" y="350" type="qcurve"/>
      <point x="670" y="351" type="line"/>
      <point x="670" y="385"/>
      <point x="669" y="438"/>
      <point x="667" y="464" type="qcurve"/>
      <point x="696" y="486"/>
      <point x="772" y="512"/>
      <point x="813" y="512" type="qcurve" smooth="yes"/>
      <point x="843" y="512"/>
      <point x="906" y="494"/>
      <point x="958" y="460"/>
      <point x="991" y="407"/>
      <point x="991" y="373" type="qcurve" smooth="yes"/>
      <point x="991" y="339"/>
      <point x="966" y="284"/>
      <point x="927" y="235"/>
      <point x="880" y="193"/>
      <point x="856" y="169" type="qcurve" smooth="yes"/>
      <point x="744" y="69" type="line"/>
      <point x="922" y="73" type="line" smooth="yes"/>
      <point x="933" y="73"/>
      <point x="949" y="77"/>
      <point x="966" y="90"/>
      <point x="982" y="113"/>
      <point x="992" y="134" type="qcurve"/>
      <point x="1018" y="127" type="line"/>
      <point x="1014" y="112"/>
      <point x="1005" y="79"/>
      <point x="997" y="46"/>
      <point x="992" y="15"/>
      <point x="992" y="4" type="qcurve"/>
      <point x="934" y="4"/>
      <point x="862" y="5"/>
      <point x="814" y="5"/>
      <point x="782" y="7"/>
      <point x="767" y="7" type="qcurve" smooth="yes"/>
      <point x="755" y="7"/>
      <point x="718" y="5"/>
      <point x="700" y="5" type="qcurve" smooth="yes"/>
      <point x="681" y="5"/>
      <point x="649" y="4"/>
      <point x="641" y="4" type="qcurve"/>
      <point x="636" y="22" type="line"/>
      <point x="773" y="152" type="line" smooth="yes"/>
      <point x="809" y="186"/>
      <point x="868" y="249"/>
      <point x="884" y="280" type="qcurve" smooth="yes"/>
      <point x="892" y="296"/>
      <point x="901" y="333"/>
      <point x="901" y="352" type="qcurve" smooth="yes"/>
      <point x="901" y="372"/>
      <point x="889" y="407"/>
      <point x="860" y="431"/>
      <point x="823" y="446"/>
      <point x="783" y="447"/>
      <point x="745" y="436"/>
      <point x="732" y="422" type="qcurve" smooth="yes"/>
      <point x="704" y="398"/>
    </contour>
    <contour>
      <point x="69" y="755" type="line"/>
      <point x="123" y="768"/>
      <point x="223" y="799"/>
      <point x="274" y="816" type="qcurve"/>
      <point x="279" y="812" type="line"/>
      <point x="278" y="796"/>
      <point x="275" y="762"/>
      <point x="275" y="728"/>
      <point x="274" y="697"/>
      <point x="274" y="689" type="qcurve" smooth="yes"/>
      <point x="274" y="399" type="line" smooth="yes"/>
      <point x="274" y="385"/>
      <point x="278" y="364"/>
      <point x="297" y="351"/>
      <point x="334" y="343"/>
      <point x="369" y="342" type="qcurve"/>
      <point x="367" y="315" type="line"/>
      <point x="319" y="315" type="line" smooth="yes"/>
      <point x="302" y="315"/>
      <point x="260" y="316"/>
      <point x="231" y="316" type="qcurve" smooth="yes"/>
      <point x="175" y="316"/>
      <point x="105" y="315"/>
      <point x="88" y="315" type="qcurve"/>
      <point x="86" y="341" type="line"/>
      <point x="123" y="342"/>
      <point x="165" y="350"/>
      <point x="187" y="369"/>
      <point x="191" y="403"/>
      <point x="191" y="429" type="qcurve" smooth="yes"/>
      <point x="191" y="737" type="line"/>
      <point x="77" y="721" type="line"/>
    </contour>
    <contour>
      <point x="772" y="847" type="line"/>
      <point x="816" y="821" type="line"/>
      <point x="271" y="-45" type="line"/>
      <point x="231" y="-18" type="line"/>
    </contour>
  </outline>
</glyph>
<glyph name="threequarters" format="2">
  <advance width="1046"/>
  <unicode hex="00BE"/>
  <outline>
    <contour>
      <point x="811" y="79" type="qcurve" smooth="yes"/>
      <point x="811" y="150" type="line"/>
      <point x="551" y="149" type="line"/>
      <point x="538" y="181" type="line"/>
      <point x="578" y="231"/>
      <point x="667" y="346"/>
      <point x="755" y="461"/>
      <point x="838" y="569"/>
      <point x="872" y="614" type="qcurve"/>
      <point x="912" y="606" type="line"/>
      <point x="908" y="576"/>
      <point x="904" y="517"/>
      <point x="904" y="482" type="qcurve" smooth="yes"/>
      <point x="904" y="214" type="line"/>
      <point x="982" y="215" type="line"/>
      <point x="990" y="207" type="line"/>
      <point x="986" y="149" type="line"/>
      <point x="904" y="149" type="line"/>
      <point x="904" y="33" type="line"/>
      <point x="881" y="32"/>
      <point x="837" y="29"/>
      <point x="809" y="27" type="qcurve"/>
      <point x="810" y="45"/>
      <point x="811" y="71"/>
    </contour>
    <contour>
      <point x="61" y="676" type="line"/>
      <point x="61" y="708"/>
      <point x="59" y="757"/>
      <point x="58" y="781" type="qcurve"/>
      <point x="95" y="800"/>
      <point x="169" y="821"/>
      <point x="212" y="821" type="qcurve" smooth="yes"/>
      <point x="235" y="821"/>
      <point x="293" y="810"/>
      <point x="341" y="785"/>
      <point x="373" y="746"/>
      <point x="373" y="718" type="qcurve" smooth="yes"/>
      <point x="373" y="680"/>
      <point x="328" y="627"/>
      <point x="294" y="603" type="qcurve"/>
      <point x="294" y="601" type="line"/>
      <point x="344" y="586"/>
      <point x="403" y="513"/>
      <point x="403" y="465" type="qcurve" smooth="yes"/>
      <point x="403" y="420"/>
      <point x="363" y="354"/>
      <point x="301" y="310"/>
      <point x="220" y="289"/>
      <point x="178" y="289" type="qcurve" smooth="yes"/>
      <point x="161" y="289"/>
      <point x="110" y="297"/>
      <point x="64" y="313"/>
      <point x="33" y="343"/>
      <point x="33" y="366" type="qcurve" smooth="yes"/>
      <point x="33" y="383"/>
      <point x="64" y="415"/>
      <point x="87" y="418" type="qcurve" smooth="yes"/>
      <point x="90" y="418" type="line"/>
      <point x="103" y="381"/>
      <point x="165" y="337"/>
      <point x="202" y="337" type="qcurve" smooth="yes"/>
      <point x="226" y="337"/>
      <point x="264" y="353"/>
      <point x="290" y="382"/>
      <point x="306" y="421"/>
      <point x="306" y="446" type="qcurve" smooth="yes"/>
      <point x="306" y="501"/>
      <point x="242" y="552"/>
      <point x="187" y="552" type="qcurve" smooth="yes"/>
      <point x="161" y="552"/>
      <point x="132" y="546" type="qcurve"/>
      <point x="127" y="581" type="line"/>
      <point x="152" y="584"/>
      <point x="208" y="596"/>
      <point x="253" y="619"/>
      <point x="285" y="658"/>
      <point x="285" y="689" type="qcurve" smooth="yes"/>
      <point x="285" y="706"/>
      <point x="269" y="735"/>
      <point x="244" y="754"/>
      <point x="211" y="762"/>
      <point x="194" y="762" type="qcurve" smooth="yes"/>
      <point x="152" y="762"/>
      <point x="92" y="718"/>
      <point x="90" y="675" type="qcurve"/>
    </contour>
    <contour>
      <point x="819" y="962" type="line"/>
      <point x="868" y="932" type="line"/>
      <point x="248" y="-51" type="line"/>
      <point x="202" y="-20" type="line"/>
    </contour>
    <contour>
      <point x="811" y="213" type="line"/>
      <point x="811" y="457" type="line"/>
      <point x="807" y="458" type="line"/>
      <point x="759" y="398"/>
      <point x="671" y="279"/>
      <point x="622" y="210" type="qcurve"/>
    </contour>
  </outline>
</glyph>
<glyph name="Eth" format="2">
  <advance width="822"/>
  <unicode hex="00D0"/>
  <outline>
    <contour>
      <point x="44" y="362" type="line"/>
      <point x="41" y="406" type="line"/>
      <point x="141" y="406" type="line"/>
      <point x="141" y="633" type="line" smooth="yes"/>
      <point x="141" y="654"/>
      <point x="134" y="679"/>
      <point x="114" y="695"/>
      <point x="74" y="702"/>
      <point x="39" y="703" type="qcurve"/>
      <point x="40" y="731" type="line"/>
      <point x="68" y="731"/>
      <point x="146" y="730"/>
      <point x="185" y="730" type="qcurve" smooth="yes"/>
      <point x="224" y="730"/>
      <point x="310" y="738"/>
      <point x="349" y="738" type="qcurve" smooth="yes"/>
      <point x="431" y="738"/>
      <point x="583" y="702"/>
      <point x="701" y="622"/>
      <point x="772" y="492"/>
      <point x="772" y="398" type="qcurve" smooth="yes"/>
      <point x="772" y="300"/>
      <point x="702" y="150"/>
      <point x="583" y="46"/>
      <point x="426" y="-8"/>
      <point x="338" y="-8" type="qcurve" smooth="yes"/>
      <point x="299" y="-8"/>
      <point x="211" y="2"/>
      <point x="172" y="2" type="qcurve" smooth="yes"/>
      <point x="157" y="2"/>
      <point x="122" y="1"/>
      <point x="105" y="1" type="qcurve" smooth="yes"/>
      <point x="87" y="1"/>
      <point x="55" y="0"/>
      <point x="43" y="0" type="qcurve"/>
      <point x="41" y="26" type="line"/>
      <point x="73" y="28"/>
      <point x="113" y="38"/>
      <point x="134" y="58"/>
      <point x="141" y="94"/>
      <point x="141" y="123" type="qcurve" smooth="yes"/>
      <point x="141" y="362" type="line"/>
    </contour>
    <contour>
      <point x="229" y="662" type="qcurve" smooth="yes"/>
      <point x="229" y="406" type="line"/>
      <point x="453" y="406" type="line"/>
      <point x="450" y="362" type="line"/>
      <point x="229" y="362" type="line"/>
      <point x="229" y="135" type="line" smooth="yes"/>
      <point x="229" y="114"/>
      <point x="232" y="76"/>
      <point x="252" y="49"/>
      <point x="297" y="34"/>
      <point x="338" y="34" type="qcurve" smooth="yes"/>
      <point x="411" y="34"/>
      <point x="532" y="80"/>
      <point x="619" y="168"/>
      <point x="667" y="294"/>
      <point x="667" y="374" type="qcurve" smooth="yes"/>
      <point x="667" y="454"/>
      <point x="618" y="575"/>
      <point x="530" y="657"/>
      <point x="412" y="698"/>
      <point x="342" y="698" type="qcurve" smooth="yes"/>
      <point x="318" y="698"/>
      <point x="277" y="692"/>
      <point x="246" y="682"/>
      <point x="229" y="670"/>
    </contour>
  </outline>
</glyph>
<glyph name="multiply" format="2">
  <advance width="922"/>
  <unicode hex="00D7"/>
  <outline>
    <contour>
      <point x="367" y="578" type="line"/>
      <point x="113" y="834" type="line"/>
      <point x="197" y="918" type="line"/>
      <point x="450" y="663" type="line"/>
      <point x="708" y="918" type="line"/>
      <point x="791" y="835" type="line"/>
      <point x="534" y="578" type="line"/>
      <point x="790" y="322" type="line"/>
      <point x="708" y="241" type="line"/>
      <point x="450" y="494" type="line"/>
      <point x="197" y="242" type="line"/>
      <point x="114" y="325" type="line"/>
    </contour>
  </outline>
</glyph>
<glyph name="divide" format="2">
  <advance width="910"/>
  <unicode hex="00F7"/>
  <outline>
    <contour>
      <point x="82" y="518" type="line"/>
      <point x="82" y="638" type="line"/>
      <point x="821" y="638" type="line"/>
      <point x="821" y="518" type="line"/>
    </contour>
    <contour>
      <point x="359" y="298" type="qcurve" smooth="yes"/>
      <point x="359" y="326"/>
      <point x="374" y="364"/>
      <point x="398" y="388"/>
      <point x="431" y="398"/>
      <point x="450" y="398" type="qcurve" smooth="yes"/>
      <point x="469" y="398"/>
      <point x="502" y="388"/>
      <point x="528" y="364"/>
      <point x="542" y="326"/>
      <point x="542" y="298" type="qcurve" smooth="yes"/>
      <point x="542" y="272"/>
      <point x="528" y="234"/>
      <point x="502" y="210"/>
      <point x="469" y="198"/>
      <point x="450" y="198" type="qcurve" smooth="yes"/>
      <point x="431" y="198"/>
      <point x="398" y="210"/>
      <point x="374" y="234"/>
      <point x="359" y="272"/>
    </contour>
    <contour>
      <point x="359" y="857" type="qcurve" smooth="yes"/>
      <point x="359" y="885"/>
      <point x="374" y="922"/>
      <point x="398" y="946"/>
      <point x="431" y="957"/>
      <point x="450" y="957" type="qcurve" smooth="yes"/>
      <point x="469" y="957"/>
      <point x="502" y="946"/>
      <point x="528" y="922"/>
      <point x="542" y="885"/>
      <point x="542" y="857" type="qcurve" smooth="yes"/>
      <point x="542" y="830"/>
      <point x="528" y="793"/>
      <point x="502" y="768"/>
      <point x="469" y="757"/>
      <point x="450" y="757" type="qcurve" smooth="yes"/>
      <point x="431" y="757"/>
      <point x="398" y="768"/>
      <point x="374" y="793"/>
      <point x="359" y="830"/>
    </contour>
  </outline>
</glyph>
<glyph name="tilde" format="2">
  <advance width="861"/>
  <unicode hex="02DC"/>
  <outline>
    <contour>
      <point x="729" y="1312" type="line"/>
      <point x="729" y="1230"/>
      <point x="625" y="1115"/>
      <point x="546" y="1115" type="qcurve" smooth="yes"/>
      <point x="484" y="1115"/>
      <point x="348" y="1197"/>
      <point x="302" y="1197" type="qcurve" smooth="yes"/>
      <point x="265" y="1197"/>
      <point x="213" y="1140"/>
      <point x="213" y="1099" type="qcurve"/>
      <point x="119" y="1122" type="line"/>
      <point x="119" y="1203"/>
      <point x="222" y="1324"/>
      <point x="302" y="1324" type="qcurve" smooth="yes"/>
      <point x="352" y="1324"/>
      <point x="499" y="1242"/>
      <point x="546" y="1242" type="qcurve" smooth="yes"/>
      <point x="583" y="1242"/>
      <point x="635" y="1299"/>
      <point x="635" y="1340" type="qcurve"/>
    </contour>
  </outline>
</glyph>
<glyph name="hungarumlaut" format="2">
  <advance width="666"/>
  <unicode hex="02DD"/>
  <outline>
    <contour>
      <point x="226" y="621" type="line"/>
      <point x="305" y="862" type="line"/>
      <point x="396" y="854" type="line"/>
      <point x="401" y="843" type="line"/>
      <point x="258" y="610" type="line"/>
      <point x="229" y="616" type="line"/>
    </contour>
    <contour>
      <point x="398" y="617" type="line"/>
      <point x="477" y="857" type="line"/>
      <point x="567" y="849" type="line"/>
      <point x="572" y="838" type="line"/>
      <point x="429" y="605" type="line"/>
      <point x="401" y="611" type="line"/>
    </contour>
  </outline>
</glyph>
<glyph name="dotbelowcomb" format="2">
  <advance width="666"/>
  <unicode hex="0323"/>
  <outline>
    <contour>
      <point x="333" y="-216" type="qcurve" smooth="yes"/>
      <point x="303" y="-216"/>
      <point x="266" y="-179"/>
      <point x="266" y="-149" type="qcurve" smooth="yes"/>
      <point x="266" y="-119"/>
      <point x="303" y="-82"/>
      <point x="333" y="-82" type="qcurve" smooth="yes"/>
      <point x="364" y="-82"/>
      <point x="402" y="-119"/>
      <point x="402" y="-149" type="qcurve" smooth="yes"/>
      <point x="402" y="-179"/>
      <point x="363" y="-216"/>
    </contour>
  </outline>
</glyph>
<glyph name="uni0326" format="2">
  <advance width="666"/>
  <unicode hex="0326"/>
  <outline>
    <contour>
      <point x="266" y="-302" type="line"/>
      <point x="304" y="-289"/>
      <point x="347" y="-234"/>
      <point x="347" y="-207" type="qcurve" smooth="yes"/>
      <point x="347" y="-186"/>
      <point x="315" y="-152"/>
      <point x="282" y="-149" type="qcurve"/>
      <point x="274" y="-144"/>
      <point x="266" y="-125"/>
      <point x="266" y="-116" type="qcurve" smooth="yes"/>
      <point x="266" y="-91"/>
      <point x="301" y="-63"/>
      <point x="324" y="-63" type="qcurve" smooth="yes"/>
      <point x="345" y="-63"/>
      <point x="382" y="-82"/>
      <point x="407" y="-112"/>
      <point x="421" y="-150"/>
      <point x="421" y="-167" type="qcurve" smooth="yes"/>
      <point x="421" y="-196"/>
      <point x="398" y="-248"/>
      <point x="360" y="-291"/>
      <point x="310" y="-325"/>
      <point x="281" y="-335" type="qcurve"/>
    </contour>
  </outline>
</glyph>
<glyph name="uni060C" format="2">
  <advance width="606"/>
  <unicode hex="060C"/>
  <outline>
    <contour>
      <point x="430" y="719" type="line"/>
      <point x="443" y="719" type="line"/>
      <point x="446" y="715" type="line" smooth="yes"/>
      <point x="447" y="711"/>
      <point x="447" y="703" type="qcurve" smooth="yes"/>
      <point x="446" y="701" type="line"/>
      <point x="446" y="696" type="line" smooth="yes"/>
      <point x="444" y="691"/>
      <point x="443" y="682" type="qcurve" smooth="yes"/>
      <point x="442" y="680" type="line"/>
      <point x="437" y="664" type="line" smooth="yes"/>
      <point x="434" y="658"/>
      <point x="429" y="651" type="qcurve" smooth="yes"/>
      <point x="423" y="638" type="line" smooth="yes"/>
      <point x="419" y="634"/>
      <point x="416" y="626" type="qcurve"/>
      <point x="414" y="625" type="line" smooth="yes"/>
      <point x="412" y="620"/>
      <point x="407" y="615" type="qcurve" smooth="yes"/>
      <point x="406" y="613" type="line" smooth="yes"/>
      <point x="403" y="609"/>
      <point x="400" y="601" type="qcurve"/>
      <point x="398" y="601" type="line"/>
      <point x="395" y="596"/>
      <point x="390" y="588" type="qcurve" smooth="yes"/>
      <point x="387" y="585"/>
      <point x="384" y="579" type="qcurve" smooth="yes"/>
      <point x="382" y="577" type="line" smooth="yes"/>
      <point x="379" y="572"/>
      <point x="373" y="564" type="qcurve" smooth="yes"/>
      <point x="364" y="552" type="line" smooth="yes"/>
      <point x="361" y="548"/>
      <point x="358" y="542" type="qcurve"/>
      <point x="356" y="541" type="line" smooth="yes"/>
      <point x="353" y="536"/>
      <point x="348" y="528" type="qcurve" smooth="yes"/>
      <point x="344" y="524"/>
      <point x="341" y="518" type="qcurve" smooth="yes"/>
      <point x="340" y="516" type="line" smooth="yes"/>
      <point x="337" y="512"/>
      <point x="333" y="504" type="qcurve"/>
      <point x="331" y="503" type="line" smooth="yes"/>
      <point x="329" y="498"/>
      <point x="325" y="493" type="qcurve" smooth="yes"/>
      <point x="324" y="491" type="line"/>
      <point x="316" y="479" type="line"/>
      <point x="307" y="466" type="line" smooth="yes"/>
      <point x="305" y="463"/>
      <point x="303" y="459" type="qcurve" smooth="yes"/>
      <point x="302" y="457" type="line"/>
      <point x="300" y="454" type="line" smooth="yes"/>
      <point x="297" y="449"/>
      <point x="293" y="443" type="qcurve" smooth="yes"/>
      <point x="292" y="441" type="line" smooth="yes"/>
      <point x="288" y="436"/>
      <point x="284" y="428" type="qcurve" smooth="yes"/>
      <point x="281" y="424"/>
      <point x="278" y="418" type="qcurve" smooth="yes"/>
      <point x="276" y="416" type="line" smooth="yes"/>
      <point x="273" y="410"/>
      <point x="268" y="403" type="qcurve" smooth="yes"/>
      <point x="266" y="398"/>
      <point x="263" y="392" type="qcurve" smooth="yes"/>
      <point x="262" y="389" type="line"/>
      <point x="254" y="376" type="line" smooth="yes"/>
      <point x="252" y="372"/>
      <point x="249" y="364" type="qcurve"/>
      <point x="247" y="363" type="line" smooth="yes"/>
      <point x="244" y="358"/>
      <point x="242" y="348" type="qcurve" smooth="yes"/>
      <point x="235" y="334" type="line" smooth="yes"/>
      <point x="233" y="328"/>
      <point x="229" y="320" type="qcurve" smooth="yes"/>
      <point x="226" y="313"/>
      <point x="225" y="304" type="qcurve" smooth="yes"/>
      <point x="223" y="297"/>
      <point x="223" y="288" type="qcurve"/>
      <point x="222" y="286" type="line"/>
      <point x="222" y="279" type="line"/>
      <point x="221" y="277" type="line"/>
      <point x="221" y="256" type="line"/>
      <point x="222" y="249" type="line"/>
      <point x="222" y="247" type="line" smooth="yes"/>
      <point x="223" y="242"/>
      <point x="223" y="237" type="qcurve" smooth="yes"/>
      <point x="225" y="232" type="line"/>
      <point x="225" y="229" type="line"/>
      <point x="229" y="214" type="line" smooth="yes"/>
      <point x="231" y="209"/>
      <point x="235" y="203" type="qcurve" smooth="yes"/>
      <point x="236" y="201" type="line" smooth="yes"/>
      <point x="239" y="195"/>
      <point x="246" y="189" type="qcurve" smooth="yes"/>
      <point x="249" y="185"/>
      <point x="254" y="181" type="qcurve" smooth="yes"/>
      <point x="256" y="179" type="line" smooth="yes"/>
      <point x="262" y="175"/>
      <point x="269" y="172" type="qcurve" smooth="yes"/>
      <point x="274" y="168"/>
      <point x="284" y="167" type="qcurve" smooth="yes"/>
      <point x="292" y="165"/>
      <point x="302" y="164" type="qcurve" smooth="yes"/>
      <point x="322" y="164" type="line" smooth="yes"/>
      <point x="330" y="164"/>
      <point x="340" y="167" type="qcurve" smooth="yes"/>
      <point x="347" y="167"/>
      <point x="356" y="170" type="qcurve" smooth="yes"/>
      <point x="363" y="171"/>
      <point x="372" y="175" type="qcurve" smooth="yes"/>
      <point x="386" y="181" type="line" smooth="yes"/>
      <point x="392" y="183"/>
      <point x="398" y="187" type="qcurve"/>
      <point x="401" y="187" type="line" smooth="yes"/>
      <point x="407" y="189"/>
      <point x="414" y="194" type="qcurve" smooth="yes"/>
      <point x="419" y="196"/>
      <point x="424" y="201" type="qcurve" smooth="yes"/>
      <point x="427" y="202" type="line" smooth="yes"/>
      <point x="432" y="204"/>
      <point x="436" y="207" type="qcurve" smooth="yes"/>
      <point x="440" y="209" type="line" smooth="yes"/>
      <point x="444" y="211"/>
      <point x="449" y="216" type="qcurve" smooth="yes"/>
      <point x="452" y="217" type="line"/>
      <point x="458" y="221" type="line"/>
      <point x="457" y="214" type="line"/>
      <point x="457" y="212" type="line"/>
      <point x="456" y="210" type="line" smooth="yes"/>
      <point x="455" y="202"/>
      <point x="451" y="194" type="qcurve" smooth="yes"/>
      <point x="450" y="187"/>
      <point x="446" y="179" type="qcurve" smooth="yes"/>
      <point x="444" y="172"/>
      <point x="442" y="164" type="qcurve" smooth="yes"/>
      <point x="437" y="151" type="line"/>
      <point x="436" y="148" type="line" smooth="yes"/>
      <point x="434" y="142"/>
      <point x="429" y="134" type="qcurve" smooth="yes"/>
      <point x="426" y="129"/>
      <point x="423" y="120" type="qcurve" smooth="yes"/>
      <point x="420" y="116"/>
      <point x="419" y="110" type="qcurve"/>
      <point x="417" y="109" type="line"/>
      <point x="416" y="108" type="line" smooth="yes"/>
      <point x="414" y="102"/>
      <point x="408" y="94" type="qcurve" smooth="yes"/>
      <point x="406" y="89"/>
      <point x="402" y="84" type="qcurve" smooth="yes"/>
      <point x="401" y="82" type="line"/>
      <point x="392" y="69" type="line" smooth="yes"/>
      <point x="389" y="64"/>
      <point x="383" y="58" type="qcurve" smooth="yes"/>
      <point x="379" y="54"/>
      <point x="375" y="49" type="qcurve" smooth="yes"/>
      <point x="373" y="48" type="line" smooth="yes"/>
      <point x="370" y="45"/>
      <point x="366" y="40" type="qcurve" smooth="yes"/>
      <point x="364" y="39" type="line"/>
      <point x="363" y="37" type="line" smooth="yes"/>
      <point x="357" y="33"/>
      <point x="352" y="28" type="qcurve" smooth="yes"/>
      <point x="347" y="26"/>
      <point x="342" y="21" type="qcurve" smooth="yes"/>
      <point x="340" y="20" type="line" smooth="yes"/>
      <point x="335" y="17"/>
      <point x="326" y="12" type="qcurve" smooth="yes"/>
      <point x="321" y="10"/>
      <point x="315" y="7" type="qcurve" smooth="yes"/>
      <point x="312" y="7" type="line"/>
      <point x="300" y="2" type="line"/>
      <point x="297" y="2" type="line"/>
      <point x="297" y="1" type="line"/>
      <point x="293" y="1"/>
      <point x="287" y="0" type="qcurve" smooth="yes"/>
      <point x="257" y="0" type="line" smooth="yes"/>
      <point x="249" y="0"/>
      <point x="239" y="3" type="qcurve" smooth="yes"/>
      <point x="232" y="5"/>
      <point x="224" y="9" type="qcurve" smooth="yes"/>
      <point x="218" y="11"/>
      <point x="211" y="16" type="qcurve" smooth="yes"/>
      <point x="205" y="19"/>
      <point x="200" y="25" type="qcurve" smooth="yes"/>
      <point x="195" y="29"/>
      <point x="188" y="34" type="qcurve" smooth="yes"/>
      <point x="185" y="38"/>
      <point x="182" y="44" type="qcurve" smooth="yes"/>
      <point x="180" y="46" type="line"/>
      <point x="172" y="56" type="line"/>
      <point x="171" y="58" type="line" smooth="yes"/>
      <point x="169" y="63"/>
      <point x="166" y="69" type="qcurve" smooth="yes"/>
      <point x="165" y="72" type="line" smooth="yes"/>
      <point x="162" y="77"/>
      <point x="159" y="87" type="qcurve" smooth="yes"/>
      <point x="157" y="93"/>
      <point x="155" y="100" type="qcurve" smooth="yes"/>
      <point x="154" y="103" type="line" smooth="yes"/>
      <point x="153" y="110"/>
      <point x="151" y="120" type="qcurve" smooth="yes"/>
      <point x="150" y="126" type="line"/>
      <point x="150" y="187" type="line"/>
      <point x="151" y="198" type="line"/>
      <point x="152" y="200" type="line" smooth="yes"/>
      <point x="152" y="207"/>
      <point x="154" y="215" type="qcurve" smooth="yes"/>
      <point x="154" y="218" type="line" smooth="yes"/>
      <point x="155" y="225"/>
      <point x="158" y="234" type="qcurve" smooth="yes"/>
      <point x="158" y="242"/>
      <point x="162" y="251" type="qcurve" smooth="yes"/>
      <point x="163" y="257"/>
      <point x="165" y="266" type="qcurve"/>
      <point x="166" y="267" type="line"/>
      <point x="169" y="282" type="line"/>
      <point x="170" y="284" type="line" smooth="yes"/>
      <point x="171" y="292"/>
      <point x="175" y="300" type="qcurve" smooth="yes"/>
      <point x="177" y="307"/>
      <point x="180" y="315" type="qcurve" smooth="yes"/>
      <point x="182" y="322"/>
      <point x="186" y="330" type="qcurve" smooth="yes"/>
      <point x="190" y="345" type="line" smooth="yes"/>
      <point x="193" y="351"/>
      <point x="196" y="360" type="qcurve" smooth="yes"/>
      <point x="198" y="366"/>
      <point x="203" y="374" type="qcurve" smooth="yes"/>
      <point x="205" y="380"/>
      <point x="208" y="388" type="qcurve" smooth="yes"/>
      <point x="210" y="393"/>
      <point x="214" y="400" type="qcurve" smooth="yes"/>
      <point x="215" y="403" type="line" smooth="yes"/>
      <point x="217" y="407"/>
      <point x="220" y="414" type="qcurve" smooth="yes"/>
      <point x="222" y="416" type="line" smooth="yes"/>
      <point x="224" y="423"/>
      <point x="228" y="430" type="qcurve" smooth="yes"/>
      <point x="230" y="434"/>
      <point x="233" y="442" type="qcurve"/>
      <point x="235" y="443" type="line" smooth="yes"/>
      <point x="237" y="448"/>
      <point x="241" y="455" type="qcurve" smooth="yes"/>
      <point x="242" y="458" type="line" smooth="yes"/>
      <point x="245" y="464"/>
      <point x="249" y="471" type="qcurve" smooth="yes"/>
      <point x="251" y="476"/>
      <point x="255" y="482" type="qcurve" smooth="yes"/>
      <point x="256" y="484" type="line" smooth="yes"/>
      <point x="259" y="488"/>
      <point x="262" y="496" type="qcurve"/>
      <point x="264" y="497" type="line"/>
      <point x="266" y="503"/>
      <point x="271" y="510" type="qcurve" smooth="yes"/>
      <point x="274" y="516"/>
      <point x="279" y="523" type="qcurve" smooth="yes"/>
      <point x="281" y="529"/>
      <point x="286" y="536" type="qcurve" smooth="yes"/>
      <point x="288" y="542"/>
      <point x="294" y="548" type="qcurve" smooth="yes"/>
      <point x="297" y="554"/>
      <point x="302" y="561" type="qcurve" smooth="yes"/>
      <point x="305" y="565"/>
      <point x="308" y="573" type="qcurve"/>
      <point x="310" y="574" type="line" smooth="yes"/>
      <point x="312" y="579"/>
      <point x="317" y="584" type="qcurve" smooth="yes"/>
      <point x="318" y="586" type="line" smooth="yes"/>
      <point x="321" y="590"/>
      <point x="325" y="598" type="qcurve" smooth="yes"/>
      <point x="326" y="599" type="line" smooth="yes"/>
      <point x="329" y="604"/>
      <point x="334" y="611" type="qcurve" smooth="yes"/>
      <point x="343" y="623" type="line" smooth="yes"/>
      <point x="347" y="628"/>
      <point x="350" y="636" type="qcurve" smooth="yes"/>
      <point x="354" y="640"/>
      <point x="360" y="647" type="qcurve" smooth="yes"/>
      <point x="363" y="651"/>
      <point x="366" y="657" type="qcurve" smooth="yes"/>
      <point x="367" y="657"/>
      <point x="368" y="659" type="qcurve" smooth="yes"/>
      <point x="372" y="663"/>
      <point x="376" y="668" type="qcurve" smooth="yes"/>
      <point x="378" y="669" type="line" smooth="yes"/>
      <point x="381" y="673"/>
      <point x="385" y="679" type="qcurve" smooth="yes"/>
      <point x="387" y="680" type="line" smooth="yes"/>
      <point x="391" y="684"/>
      <point x="395" y="690" type="qcurve" smooth="yes"/>
      <point x="397" y="691" type="line" smooth="yes"/>
      <point x="400" y="694"/>
      <point x="404" y="699" type="qcurve"/>
      <point x="405" y="699" type="line"/>
      <point x="407" y="701" type="line" smooth="yes"/>
      <point x="412" y="707"/>
      <point x="419" y="711" type="qcurve" smooth="yes"/>
      <point x="423" y="715"/>
      <point x="428" y="718" type="qcurve" smooth="yes"/>
    </contour>
  </outline>
</glyph>
<glyph name="uni061B" format="2">
  <advance width="1719"/>
  <unicode hex="061B"/>
  <outline>
    <contour>
      <point x="744" y="811" type="line"/>
      <point x="774" y="860"/>
      <point x="835" y="968"/>
      <point x="909" y="1056"/>
      <point x="1007" y="1113"/>
      <point x="1077" y="1113" type="qcurve" smooth="yes"/>
      <point x="1121" y="1113"/>
      <point x="1208" y="1085"/>
      <point x="1293" y="1048"/>
      <point x="1379" y="1009"/>
      <point x="1422" y="999" type="qcurve"/>
      <point x="1435" y="988"/>
      <point x="1505" y="967"/>
      <point x="1585" y="953"/>
      <point x="1660" y="944"/>
      <point x="1679" y="944" type="qcurve" smooth="yes"/>
      <point x="1696" y="946" type="line"/>
      <point x="1696" y="940" type="line"/>
      <point x="1688" y="929"/>
      <point x="1668" y="902"/>
      <point x="1649" y="876"/>
      <point x="1633" y="848"/>
      <point x="1629" y="836" type="qcurve" smooth="yes"/>
      <point x="1605" y="798" type="line"/>
      <point x="1500" y="798"/>
      <point x="1296" y="758"/>
      <point x="1195" y="729" type="qcurve" smooth="yes"/>
      <point x="1165" y="720"/>
      <point x="1108" y="701"/>
      <point x="1077" y="697" type="qcurve"/>
      <point x="1072" y="697" type="line"/>
      <point x="1076" y="691" type="line"/>
      <point x="1092" y="686"/>
      <point x="1118" y="668"/>
      <point x="1129" y="657" type="qcurve"/>
      <point x="1133" y="655" type="line"/>
      <point x="1150" y="622" type="line" smooth="yes"/>
      <point x="1151" y="614"/>
      <point x="1154" y="600"/>
      <point x="1154" y="592" type="qcurve" smooth="yes"/>
      <point x="1154" y="544"/>
      <point x="1117" y="471"/>
      <point x="1057" y="418"/>
      <point x="977" y="383"/>
      <point x="892" y="361"/>
      <point x="807" y="352"/>
      <point x="771" y="352" type="qcurve" smooth="yes"/>
      <point x="721" y="352"/>
      <point x="622" y="367"/>
      <point x="571" y="367" type="qcurve" smooth="yes"/>
      <point x="562" y="367"/>
      <point x="522" y="362"/>
      <point x="469" y="352"/>
      <point x="411" y="341"/>
      <point x="363" y="327"/>
      <point x="328" y="315"/>
      <point x="326" y="310" type="qcurve" smooth="yes"/>
      <point x="291" y="293"/>
      <point x="241" y="267"/>
      <point x="199" y="239"/>
      <point x="158" y="204"/>
      <point x="131" y="177" type="qcurve"/>
      <point x="131" y="171" type="line"/>
      <point x="238" y="144"/>
      <point x="472" y="117"/>
      <point x="582" y="117" type="qcurve" smooth="yes"/>
      <point x="686" y="117"/>
      <point x="894" y="128"/>
      <point x="1101" y="143"/>
      <point x="1309" y="155"/>
      <point x="1413" y="155" type="qcurve" smooth="yes"/>
      <point x="1421" y="155"/>
      <point x="1435" y="154"/>
      <point x="1443" y="152" type="qcurve"/>
      <point x="1426" y="118" type="line"/>
      <point x="1422" y="114" type="line"/>
      <point x="1411" y="84"/>
      <point x="1383" y="26"/>
      <point x="1367" y="-2" type="qcurve"/>
      <point x="1277" y="-2"/>
      <point x="1096" y="-12"/>
      <point x="916" y="-25"/>
      <point x="735" y="-34"/>
      <point x="645" y="-34" type="qcurve" smooth="yes"/>
      <point x="402" y="-34" type="line" smooth="yes"/>
      <point x="380" y="-34"/>
      <point x="314" y="-31"/>
      <point x="238" y="-25"/>
      <point x="158" y="-13"/>
      <point x="87" y="5"/>
      <point x="32" y="30"/>
      <point x="17" y="46" type="qcurve"/>
      <point x="16" y="54"/>
      <point x="13" y="68"/>
      <point x="13" y="75" type="qcurve" smooth="yes"/>
      <point x="13" y="97"/>
      <point x="31" y="137"/>
      <point x="40" y="156" type="qcurve" smooth="yes"/>
      <point x="72" y="225"/>
      <point x="149" y="333"/>
      <point x="243" y="414"/>
      <point x="362" y="469"/>
      <point x="438" y="485" type="qcurve"/>
      <point x="452" y="515"/>
      <point x="490" y="574"/>
      <point x="501" y="607" type="qcurve"/>
      <point x="531" y="636"/>
      <point x="568" y="691"/>
      <point x="608" y="738"/>
      <point x="663" y="777"/>
      <point x="708" y="788" type="qcurve" smooth="yes"/>
      <point x="713" y="790"/>
      <point x="719" y="790" type="qcurve" smooth="yes"/>
      <point x="726" y="790"/>
      <point x="748" y="785"/>
      <point x="779" y="773"/>
      <point x="806" y="758"/>
      <point x="815" y="752" type="qcurve"/>
      <point x="826" y="750" type="line"/>
      <point x="860" y="763" type="line" smooth="yes"/>
      <point x="865" y="769"/>
      <point x="922" y="790"/>
      <point x="1004" y="815"/>
      <point x="1100" y="840"/>
      <point x="1187" y="860"/>
      <point x="1253" y="874"/>
      <point x="1264" y="874" type="qcurve" smooth="yes"/>
      <point x="1268" y="874" type="line"/>
      <point x="1212" y="912"/>
      <point x="1075" y="966"/>
      <point x="1006" y="966" type="qcurve" smooth="yes"/>
      <point x="965" y="966"/>
      <point x="894" y="942"/>
      <point x="831" y="900"/>
      <point x="779" y="843"/>
      <point x="758" y="811" type="qcurve"/>
      <point x="746" y="805" type="line"/>
    </contour>
    <contour>
      <point x="1192" y="-430" type="qcurve"/>
      <point x="1206" y="-433"/>
      <point x="1253" y="-486"/>
      <point x="1309" y="-531" type="qcurve"/>
      <point x="1311" y="-534" type="line"/>
      <point x="1306" y="-537"/>
      <point x="1200" y="-645" type="qcurve"/>
      <point x="1140" y="-608"/>
      <point x="1089" y="-533" type="qcurve"/>
      <point x="1182" y="-442"/>
    </contour>
    <contour>
      <point x="1301" y="-241" type="qcurve"/>
      <point x="1315" y="-244"/>
      <point x="1362" y="-297"/>
      <point x="1418" y="-343" type="qcurve"/>
      <point x="1420" y="-346" type="line"/>
      <point x="1415" y="-349"/>
      <point x="1310" y="-456" type="qcurve"/>
      <point x="1250" y="-419"/>
      <point x="1198" y="-345" type="qcurve"/>
      <point x="1291" y="-253"/>
    </contour>
    <contour>
      <point x="1082" y="-251" type="qcurve"/>
      <point x="1096" y="-254"/>
      <point x="1143" y="-307"/>
      <point x="1199" y="-353" type="qcurve"/>
      <point x="1201" y="-355" type="line"/>
      <point x="1196" y="-358"/>
      <point x="1091" y="-466" type="qcurve"/>
      <point x="1031" y="-429"/>
      <point x="980" y="-354" type="qcurve"/>
      <point x="1072" y="-263"/>
    </contour>
    <contour>
      <point x="845" y="607" type="line"/>
      <point x="843" y="602"/>
      <point x="828" y="572"/>
      <point x="812" y="539"/>
      <point x="800" y="511"/>
      <point x="800" y="510" type="qcurve"/>
      <point x="825" y="510"/>
      <point x="874" y="502"/>
      <point x="899" y="502" type="qcurve" smooth="yes"/>
      <point x="973" y="502"/>
      <point x="1049" y="522" type="qcurve"/>
      <point x="1032" y="543"/>
      <point x="986" y="575"/>
      <point x="935" y="596"/>
      <point x="880" y="607"/>
      <point x="853" y="607" type="qcurve" smooth="yes"/>
    </contour>
    <contour>
      <point x="767" y="522" type="line"/>
      <point x="758" y="551"/>
      <point x="742" y="590"/>
      <point x="715" y="616"/>
      <point x="674" y="628"/>
      <point x="642" y="628" type="qcurve" smooth="yes"/>
      <point x="629" y="628"/>
      <point x="601" y="615"/>
      <point x="576" y="594"/>
      <point x="556" y="569"/>
      <point x="550" y="558" type="qcurve"/>
      <point x="593" y="539"/>
      <point x="685" y="521"/>
      <point x="733" y="521" type="qcurve" smooth="yes"/>
    </contour>
  </outline>
</glyph>
